<?xml version="1.0" encoding="utf-8"?>
<!-- Generator: Adobe Illustrator 24.2.3, SVG Export Plug-In . SVG Version: 6.00 Build 0)  -->
<svg version="1.1" id="c" xmlns="http://www.w3.org/2000/svg" xmlns:xlink="http://www.w3.org/1999/xlink" x="0px" y="0px"
	 viewBox="0 0 1721.9 1862.8" style="enable-background:new 0 0 1721.9 1862.8;" xml:space="preserve">
<style type="text/css">
	.st0{fill:#5C8DBC;}
	.st1{fill:#1A4674;}
	.st2{fill:#1B598E;}
	.st3{fill:#FFFFFF;}
</style>
<g>
	<g>
		<path class="st0" d="M1648.8,558.7c0-29.8-6.4-56.1-19.3-78.7c-12.7-22.2-31.6-40.8-57-55.5c-209.8-121-419.8-241.6-629.5-362.7
			c-56.5-32.6-111.4-31.5-167.5,1.7C692,112.7,273.9,352.2,149.3,424.4C98,454.1,73.1,499.5,73,558.6c-0.1,243.3,0,486.6-0.1,729.9
			c0,29.1,6.1,54.9,18.4,77.2c12.7,22.9,31.9,42,57.9,57.1c124.6,72.2,542.7,311.7,626.2,360.9c56.1,33.1,111,34.3,167.5,1.7
			c209.7-121.1,419.8-241.7,629.6-362.7c26-15,45.2-34.2,57.9-57c12.3-22.2,18.4-48.1,18.4-77.2
			C1648.9,1288.4,1648.9,802,1648.8,558.7"/>
	</g>
	<path class="st1" d="M863.3,921.2l-772,444.5c12.7,22.9,31.9,42,57.9,57.1c124.6,72.2,542.7,311.7,626.2,360.9
		c56.1,33.1,111,34.3,167.5,1.7c209.7-121.1,419.8-241.7,629.6-362.7c26-15,45.2-34.2,57.9-57L863.3,921.2"/>
	<path class="st1" d="M634.7,1052.8c44.9,78.4,129.4,131.3,226.2,131.3c97.5,0,182.4-53.6,227.1-132.8L863.3,921.2L634.7,1052.8"/>
	<path class="st2" d="M1648.8,558.7c0-29.8-6.4-56.1-19.3-78.7L863.3,921.2l767.1,444.4c12.3-22.2,18.4-48.1,18.4-77.2
		C1648.9,1288.4,1648.9,802,1648.8,558.7"/>
	<path class="st3" d="M1606.6,952.9h-59.9v60h-60v-60h-59.9V893h59.9v-59.9h60V893h59.9V952.9 M1387.9,952.9H1328v60H1268v-60h-59.9
		V893h59.9v-59.9h59.9V893h59.9V952.9"/>
	<path class="st3" d="M1088,1051.3c-44.7,79.3-129.6,132.8-227.1,132.8c-96.9,0-181.3-52.9-226.2-131.3
		c-22.6-39.3-34.4-83.9-34.4-129.3c0-143.9,116.7-260.6,260.6-260.6c96.2,0,180.2,52.2,225.4,129.9l227.8-131.2
		c-90.5-156.3-259.6-261.4-453.2-261.4c-289,0-523.3,234.3-523.3,523.3c0,94.8,25.2,183.7,69.3,260.4
		c90.3,157.1,259.8,262.9,454,262.9c194.6,0,364.3-106.2,454.5-263.8L1088,1051.3"/>
</g>
</svg>
