<?xml version="1.0" encoding="utf-8"?>
<!-- Generator: Adobe Illustrator 24.2.3, SVG Export Plug-In . SVG Version: 6.00 Build 0)  -->
<svg version="1.1" id="css3" xmlns="http://www.w3.org/2000/svg" xmlns:xlink="http://www.w3.org/1999/xlink" x="0px" y="0px"
	 viewBox="0 0 1458.4 1626.6" style="enable-background:new 0 0 1458.4 1626.6;" xml:space="preserve">
<style type="text/css">
	.st0{fill:#2062AF;}
	.st1{fill:#3C9CD7;}
	.st2{fill:#FFFFFF;}
	.st3{fill:url(#SVGID_1_);}
	.st4{fill:url(#SVGID_2_);}
	.st5{fill:url(#SVGID_3_);}
	.st6{opacity:5.000000e-02;enable-background:new    ;}
	.st7{fill:url(#SVGID_4_);}
</style>
<g>
	<path class="st0" d="M1219.5,1361.9L727.4,1494l-492.1-132.1L124.1,132.6h1210.2L1219.5,1361.9z"/>
	<path class="st1" d="M729.1,231.7V1388h1.7l396.4-106.1l92.3-1050.2H729.1z"/>
	<path class="st2" d="M727.4,539.5l-351.2,146l12.2,144.3l340.8-146.1l361.7-154.8l15.6-147.8L727.4,539.5L727.4,539.5z"/>
	
		<linearGradient id="SVGID_1_" gradientUnits="userSpaceOnUse" x1="-972.1022" y1="958.469" x2="-972.1022" y2="943.175" gradientTransform="matrix(23.007 0 0 -19.069 22917.8555 22781.7988)">
		<stop  offset="0.387" style="stop-color:#D1D3D4;stop-opacity:0"/>
		<stop  offset="1" style="stop-color:#D1D3D4"/>
	</linearGradient>
	<path class="st3" d="M376.2,685.5l12.2,144.3l340.8-146.1v-146L376.2,685.5z"/>
	
		<linearGradient id="SVGID_2_" gradientUnits="userSpaceOnUse" x1="-962.8412" y1="961.107" x2="-962.8412" y2="945.813" gradientTransform="matrix(24.643 0 0 -19.821 24643.3457 23700.1094)">
		<stop  offset="0.387" style="stop-color:#D1D3D4;stop-opacity:0"/>
		<stop  offset="1" style="stop-color:#D1D3D4"/>
	</linearGradient>
	<path class="st4" d="M1104.7,381.3L727.4,537.7v146.1L1089.1,529L1104.7,381.3z"/>
	
		<linearGradient id="SVGID_3_" gradientUnits="userSpaceOnUse" x1="-1092.4945" y1="1187.1619" x2="-1077.1921" y2="1187.1619" gradientTransform="matrix(45.797 0 0 -35.986 46634.0352 43680.6133)">
		<stop  offset="0" style="stop-color:#E8E7E5"/>
		<stop  offset="1" style="stop-color:#FFFFFF"/>
	</linearGradient>
	<path class="st5" d="M376.2,685.5l12.2,144.3l521.6,1.7l-12.2,193l-170.4,48.7l-165.2-41.7l-10.4-120h-153l20.9,231.3l309.5,92.2
		l307.8-90.4l40-460.8L376.2,685.5z"/>
	<path class="st6" d="M727.4,685.5H376.2l12.2,144.3l340.8,1.7L727.4,685.5z M727.4,1073.3L727.4,1073.3l-166.9-41.7l-10.4-120H397
		l20.9,231.3l309.5,92.2V1073.3z"/>
	
		<linearGradient id="SVGID_4_" gradientUnits="userSpaceOnUse" x1="-1088.9966" y1="1107.9802" x2="-1073.7133" y2="1107.9802" gradientTransform="matrix(49.721 0 0 -9.7 50715.3984 11202.6123)">
		<stop  offset="0" style="stop-color:#E8E7E5"/>
		<stop  offset="1" style="stop-color:#FFFFFF"/>
	</linearGradient>
	<path class="st7" d="M344.9,381.3h759.9l-15.6,147.8H362.3L344.9,381.3z"/>
	<path class="st6" d="M727.4,381.3H344.9L364,529.1h365.1L727.4,381.3z"/>
</g>
</svg>
