<?xml version="1.0" encoding="utf-8"?>
<!-- Generator: Adobe Illustrator 24.2.3, SVG Export Plug-In . SVG Version: 6.00 Build 0)  -->
<svg version="1.1" id="html" xmlns="http://www.w3.org/2000/svg" xmlns:xlink="http://www.w3.org/1999/xlink" x="0px" y="0px"
	 viewBox="0 0 927.3 1255.4" style="enable-background:new 0 0 927.3 1255.4;" xml:space="preserve">
<style type="text/css">
	.st0{fill:#E44D26;}
	.st1{fill:#F16529;}
	.st2{fill:#EBEBEB;}
	.st3{fill:#FFFFFF;}
</style>
<g>
	<path class="st0" d="M855.2,293.9l-71.6,801.7L462,1184.8l-320.8-89.1L69.7,293.9H855.2L855.2,293.9z"/>
	<path class="st1" d="M462.5,1116.7l259.9-72l61.2-685.1h-321V1116.7z"/>
	<path class="st2" d="M323.3,556.2h139.1v-98.3H215.9l2.3,26.4l24.2,271h220v-98.4H332.2L323.3,556.2z M345.5,804.4h-98.7
		l13.7,154.4l201.5,55.9l0.4-0.1V912.3l-0.4,0.1l-109.5-29.6L345.5,804.4L345.5,804.4z"/>
	<path d="M142.8,76h50v49.4h45.7V76h50v149.5h-50v-50.1h-45.7v50.1h-50V76L142.8,76z M354.2,125.6h-44V76h138v49.6h-44v99.9h-50
		V125.6L354.2,125.6L354.2,125.6z M470.1,76h52.1l32.1,52.5l32-52.5h52.2v149.5h-49.7v-74.1l-34.4,53.1h-0.9l-34.4-53.1v74.1h-48.9
		V76z M663.3,76h50v100.1h70.3v49.4H663.3V76L663.3,76z"/>
	<path class="st3" d="M462.1,755.2h121.1l-11.4,127.6l-109.7,29.6v102.3l201.6-55.9l1.5-16.6l23.1-258.9l2.4-26.4H462.1V755.2
		L462.1,755.2z M462.1,556v0.3h237.5l2-22.1l4.5-49.8l2.3-26.4H462.1V556L462.1,556z"/>
</g>
</svg>
