<?xml version="1.0" encoding="utf-8"?>
<!-- Generator: Adobe Illustrator 24.2.3, SVG Export Plug-In . SVG Version: 6.00 Build 0)  -->
<svg version="1.1" id="html" xmlns="http://www.w3.org/2000/svg" xmlns:xlink="http://www.w3.org/1999/xlink" x="0px" y="0px"
	 viewBox="0 0 927.3 1058" style="enable-background:new 0 0 927.3 1058;" xml:space="preserve">
<style type="text/css">
	.st0{fill:#E44D26;}
	.st1{fill:#F16529;}
	.st2{fill:#EBEBEB;}
	.st3{fill:#FFFFFF;}
</style>
<g>
	<path class="st0" d="M856.4,83.6l-71.6,801.7l-321.6,89.2l-320.8-89.1L70.9,83.6H856.4L856.4,83.6z"/>
	<path class="st1" d="M463.7,906.4l259.9-72l61.2-685.1h-321v757.1H463.7z"/>
	<path class="st2" d="M324.5,345.9h139.1v-98.3H217.1l2.3,26.4l24.2,271h220v-98.4H333.4L324.5,345.9z M346.7,594.1H248l13.7,154.4
		l201.5,55.9l0.4-0.1V702l-0.4,0.1l-109.5-29.6L346.7,594.1L346.7,594.1z"/>
	<path class="st3" d="M463.3,544.9h121.1L573,672.5l-109.7,29.6v102.3l201.6-55.9l1.5-16.6L689.5,473l2.4-26.4H463.3V544.9
		L463.3,544.9z M463.3,345.7v0.3h237.5l2-22.1l4.5-49.8l2.3-26.4H463.3V345.7L463.3,345.7z"/>
</g>
</svg>
