<?xml version="1.0" encoding="utf-8"?>
<!-- Generator: Adobe Illustrator 24.2.3, SVG Export Plug-In . SVG Version: 6.00 Build 0)  -->
<svg version="1.1" id="Layer_1" xmlns="http://www.w3.org/2000/svg" xmlns:xlink="http://www.w3.org/1999/xlink" x="0px" y="0px"
	 viewBox="0 0 1080 1080" style="enable-background:new 0 0 1080 1080;" xml:space="preserve">
<style type="text/css">
	.st0{fill:#2F76EA;}
	.st1{fill:#A5D3D0;}
	.st2{fill:#A8C73F;}
	.st3{fill:#769A53;}
	.st4{fill:#F57B59;}
	.st5{fill:#2866E0;}
	.st6{fill:#2E363D;}
	.st7{fill:#F67C59;}
	.st8{fill:#104DAF;}
	.st9{fill:#E17059;}
	.st10{fill:#F31739;}
	.st11{fill:#FFFFFF;}
	.st12{fill:#B7B7B7;}
	.st13{fill:#76ACDD;}
	.st14{fill:#F2F2F2;}
	.st15{fill:#D5E6E9;}
	.st16{fill:#BCDADF;}
	.st17{fill:#86B9C6;}
	.st18{fill:#E41E47;}
</style>
<g>
	<path class="st0" d="M735.7,190.3v1.5c1,0,2,0,2.9,0v-1.5C737.7,190.3,736.7,190.3,735.7,190.3z M732.7,190.3c-1,0-2,0-3,0.1v1.5
		c1,0,2-0.1,2.9-0.1L732.7,190.3z M741.6,190.4l-0.1,1.5c1,0,2,0.1,2.9,0.1l0.1-1.5C743.6,190.5,742.6,190.4,741.6,190.4z
		 M726.8,190.5c-1,0-2,0.1-3,0.2l0.1,1.5c1-0.1,2-0.1,2.9-0.2V190.5z M747.6,190.7l-0.1,1.5c1,0.1,2,0.1,2.9,0.2l0.1-1.5
		C749.6,190.9,748.6,190.8,747.6,190.7z M720.9,190.9c-1,0.1-2,0.2-3,0.3l0.1,1.5c1-0.1,2-0.2,2.9-0.3V190.9z M753.5,191.2l-0.2,1.5
		c1,0.1,2,0.2,2.9,0.3l0.2-1.5C755.5,191.4,754.5,191.3,753.5,191.2z M714.9,191.5c-1,0.1-2,0.2-3,0.4l0.2,1.5c1-0.1,2-0.3,2.9-0.4
		L714.9,191.5z M759.4,191.9l-0.2,1.5c1,0.1,1.9,0.3,2.9,0.4l0.2-1.5C761.4,192.2,760.4,192.1,759.4,191.9z M709,192.3
		c-1,0.1-2,0.3-2.9,0.5l0.2,1.5c1-0.2,1.9-0.3,2.9-0.5L709,192.3z M765.3,192.9l-0.3,1.5c1,0.2,1.9,0.4,2.9,0.5l0.3-1.5
		C767.2,193.2,766.2,193.1,765.3,192.9z M703.2,193.3c-1,0.2-2,0.4-2.9,0.6l0.3,1.4c1-0.2,1.9-0.4,2.9-0.6L703.2,193.3z M771.1,194
		l-0.3,1.4c1,0.2,1.9,0.4,2.9,0.6l0.3-1.4C773,194.5,772.1,194.2,771.1,194z M697.3,194.5c-1,0.2-1.9,0.4-2.9,0.7l0.3,1.4
		c0.9-0.2,1.9-0.5,2.9-0.7L697.3,194.5z M776.9,195.4l-0.4,1.4c0.9,0.2,1.9,0.5,2.8,0.8l0.4-1.4
		C778.8,195.9,777.8,195.6,776.9,195.4z M691.6,195.8c-1,0.3-1.9,0.5-2.9,0.8l0.4,1.4c0.9-0.3,1.9-0.5,2.8-0.8L691.6,195.8z
		 M782.6,197l-0.4,1.4c0.9,0.3,1.9,0.6,2.8,0.9l0.4-1.4C784.5,197.5,783.5,197.2,782.6,197z M685.8,197.4c-0.9,0.3-1.9,0.6-2.8,0.9
		l0.5,1.4c0.9-0.3,1.9-0.6,2.8-0.9L685.8,197.4z M788.3,198.8l-0.5,1.4c0.9,0.3,1.9,0.6,2.8,1l0.5-1.4
		C790.1,199.4,789.2,199.1,788.3,198.8z M680.2,199.3c-0.9,0.3-1.9,0.6-2.8,1l0.5,1.4c0.9-0.3,1.9-0.7,2.8-1L680.2,199.3z
		 M793.8,200.8l-0.5,1.4c0.9,0.4,1.8,0.7,2.7,1.1l0.6-1.4C795.7,201.5,794.8,201.1,793.8,200.8z M674.6,201.3
		c-0.9,0.4-1.9,0.7-2.8,1.1l0.6,1.4c0.9-0.4,1.8-0.7,2.7-1.1L674.6,201.3z M799.3,203l-0.6,1.4c0.9,0.4,1.8,0.8,2.7,1.2l0.6-1.3
		C801.2,203.8,800.2,203.4,799.3,203z M669.1,203.5c-0.9,0.4-1.8,0.8-2.7,1.2l0.6,1.3c0.9-0.4,1.8-0.8,2.7-1.2L669.1,203.5z
		 M804.8,205.5l-0.6,1.3c0.9,0.4,1.8,0.9,2.6,1.3l0.7-1.3C806.5,206.3,805.6,205.9,804.8,205.5z M663.7,206
		c-0.9,0.4-1.8,0.9-2.7,1.3l0.7,1.3c0.9-0.4,1.8-0.9,2.6-1.3L663.7,206z M810.1,208.2l-0.7,1.3c0.9,0.5,1.7,0.9,2.6,1.4l0.7-1.3
		C811.8,209.1,810.9,208.6,810.1,208.2z M658.4,208.6c-0.9,0.5-1.8,0.9-2.6,1.4l0.7,1.3c0.8-0.5,1.7-0.9,2.6-1.4L658.4,208.6z
		 M815.2,211.1l-0.8,1.3c0.8,0.5,1.7,1,2.5,1.5l0.8-1.3C816.9,212.1,816.1,211.6,815.2,211.1z M653.2,211.5c-0.9,0.5-1.7,1-2.5,1.5
		l0.8,1.3c0.8-0.5,1.7-1,2.5-1.5L653.2,211.5z M820.3,214.2l-0.8,1.2c0.8,0.5,1.6,1.1,2.4,1.6l0.8-1.2
		C821.9,215.3,821.1,214.8,820.3,214.2z M648.1,214.7c-0.8,0.5-1.7,1.1-2.5,1.7l0.8,1.2c0.8-0.5,1.6-1.1,2.4-1.6L648.1,214.7z
		 M825.2,217.6l-0.9,1.2c0.8,0.6,1.6,1.2,2.4,1.8l0.9-1.2C826.8,218.8,826,218.2,825.2,217.6z M643.2,218c-0.8,0.6-1.6,1.2-2.4,1.8
		l0.9,1.2c0.8-0.6,1.6-1.2,2.4-1.8L643.2,218z M829.9,221.2l-0.9,1.2c0.8,0.6,1.5,1.2,2.3,1.9l0.9-1.1
		C831.5,222.5,830.7,221.8,829.9,221.2z M638.5,221.7c-0.8,0.6-1.5,1.3-2.3,1.9l1,1.1c0.7-0.6,1.5-1.3,2.3-1.9L638.5,221.7z
		 M834.5,225l-1,1.1c0.7,0.6,1.5,1.3,2.2,2l1-1.1C836,226.4,835.3,225.7,834.5,225z M634,225.5c-0.7,0.7-1.5,1.3-2.2,2l1,1.1
		c0.7-0.7,1.4-1.3,2.2-2L634,225.5z M838.9,229.1l-1,1.1c0.7,0.7,1.4,1.4,2.1,2.1l1.1-1C840.3,230.4,839.6,229.7,838.9,229.1z
		 M629.6,229.6c-0.7,0.7-1.4,1.4-2.1,2.1l1.1,1c0.7-0.7,1.4-1.4,2-2.1L629.6,229.6z M843.1,233.3l-1.1,1c0.7,0.7,1.3,1.4,2,2.2
		l1.1-1C844.4,234.7,843.8,234,843.1,233.3z M625.6,233.9c-0.7,0.7-1.3,1.5-1.9,2.3l1.1,0.9c0.6-0.7,1.3-1.5,1.9-2.2L625.6,233.9z
		 M847,237.7l-1.1,1c0.6,0.7,1.3,1.5,1.9,2.3l1.1-0.9C848.3,239.2,847.7,238.5,847,237.7z M621.7,238.5c-0.6,0.8-1.2,1.6-1.8,2.4
		l1.2,0.9c0.6-0.8,1.2-1.6,1.8-2.3L621.7,238.5z M850.8,242.3l-1.2,0.9c0.6,0.8,1.2,1.6,1.8,2.3l1.2-0.9
		C852,243.9,851.4,243.1,850.8,242.3z M618.2,243.3c-0.6,0.8-1.1,1.7-1.6,2.5l1.2,0.8c0.5-0.8,1.1-1.6,1.6-2.5L618.2,243.3z
		 M854.3,247.1l-1.2,0.9c0.6,0.8,1.1,1.6,1.7,2.4l1.2-0.8C855.5,248.7,854.9,247.9,854.3,247.1z M615,248.4c-0.5,0.9-1,1.7-1.5,2.6
		l1.3,0.7c0.5-0.9,0.9-1.7,1.4-2.6L615,248.4z M857.6,252l-1.2,0.8c0.5,0.8,1,1.7,1.5,2.5l1.3-0.8
		C858.7,253.7,858.2,252.9,857.6,252z M612.2,253.6c-0.4,0.9-0.9,1.8-1.3,2.7l1.3,0.6c0.4-0.9,0.8-1.8,1.3-2.6L612.2,253.6z
		 M860.7,257.1l-1.3,0.7c0.5,0.9,1,1.7,1.4,2.6l1.3-0.7C861.7,258.9,861.2,258,860.7,257.1z M609.7,259c-0.2,0.4-0.3,0.8-0.5,1.3
		l-0.6,1.5l1.4,0.5l0.6-1.5c0.2-0.4,0.3-0.8,0.5-1.2L609.7,259z M863.5,262.4l-1.3,0.7c0.4,0.9,0.9,1.7,1.3,2.6l1.3-0.6
		C864.4,264.1,864,263.2,863.5,262.4z M607.5,264.5c-0.4,0.9-0.7,1.8-1.1,2.7l1.4,0.5c0.4-0.9,0.7-1.8,1.1-2.8L607.5,264.5z
		 M866.1,267.7l-1.3,0.6c0.4,0.9,0.8,1.8,1.2,2.7l1.4-0.6C866.9,269.5,866.5,268.6,866.1,267.7z M605.4,270
		c-0.4,0.9-0.7,1.8-1.1,2.7l1.4,0.6c0.4-0.9,0.7-1.8,1.1-2.7L605.4,270z M868.5,273.2l-1.4,0.6c0.4,0.9,0.7,1.8,1.1,2.7l1.4-0.5
		C869.2,275,868.8,274.1,868.5,273.2z M603.2,275.5c-0.4,0.9-0.7,1.8-1.1,2.7l1.4,0.6c0.4-0.9,0.7-1.8,1.1-2.7L603.2,275.5z
		 M870.6,278.7l-1.4,0.5c0.3,0.9,0.6,1.8,1,2.8l1.4-0.5C871.2,280.6,870.9,279.6,870.6,278.7z M600.9,281c-0.4,0.9-0.8,1.8-1.1,2.7
		l1.4,0.6c0.4-0.9,0.8-1.8,1.1-2.7L600.9,281z M872.4,284.4l-1.4,0.4c0.3,0.9,0.6,1.9,0.8,2.8l1.4-0.4
		C873,286.2,872.7,285.3,872.4,284.4z M598.7,286.4c-0.4,0.9-0.8,1.8-1.1,2.7l1.4,0.6c0.4-0.9,0.8-1.8,1.2-2.7L598.7,286.4z
		 M874.1,290.1l-1.4,0.4c0.3,0.9,0.5,1.9,0.7,2.8l1.4-0.4C874.6,292,874.4,291,874.1,290.1z M596.3,291.9c-0.4,0.9-0.8,1.8-1.2,2.7
		l1.4,0.6c0.4-0.9,0.8-1.8,1.2-2.7L596.3,291.9z M875.5,295.8l-1.4,0.3c0.2,0.9,0.4,1.9,0.6,2.9l1.4-0.3
		C876,297.7,875.7,296.8,875.5,295.8z M594,297.3c-0.4,0.9-0.8,1.8-1.2,2.7l1.3,0.6c0.4-0.9,0.8-1.8,1.2-2.7L594,297.3z
		 M876.7,301.6l-1.5,0.3c0.2,1,0.4,1.9,0.5,2.9l1.5-0.3C877.1,303.6,876.9,302.6,876.7,301.6z M591.5,302.6
		c-0.4,0.9-0.8,1.8-1.2,2.7l1.3,0.6c0.4-0.9,0.8-1.8,1.3-2.7L591.5,302.6z M877.7,307.5l-1.5,0.2c0.1,1,0.3,1.9,0.4,2.9l1.5-0.2
		C878,309.4,877.9,308.5,877.7,307.5z M589,308c-0.4,0.9-0.9,1.8-1.3,2.6l1.3,0.7c0.4-0.9,0.9-1.8,1.3-2.7L589,308z M878.6,313.4
		l-1.5,0.2c0.1,1,0.2,1.9,0.3,2.9l1.5-0.2C878.8,315.3,878.7,314.3,878.6,313.4z M586.4,313.2c-0.5,0.9-0.9,1.8-1.4,2.6l1.3,0.7
		c0.4-0.9,0.9-1.7,1.4-2.6L586.4,313.2z M583.7,318.4c-0.5,0.9-1,1.7-1.4,2.6l1.3,0.7c0.5-0.8,1-1.7,1.4-2.6L583.7,318.4z
		 M879.2,319.3l-1.5,0.1c0.1,1,0.2,2,0.2,2.9l1.5-0.1C879.3,321.2,879.3,320.3,879.2,319.3z M580.8,323.6c-0.5,0.9-1,1.7-1.5,2.5
		l1.3,0.8c0.5-0.8,1-1.7,1.5-2.5L580.8,323.6z M879.6,325.2l-1.5,0.1c0.1,1,0.2,2,0.2,3l1.5-0.1
		C879.8,327.1,879.7,326.2,879.6,325.2z M577.7,328.6c-0.5,0.8-1.1,1.7-1.6,2.5l1.2,0.8c0.5-0.8,1.1-1.6,1.6-2.5L577.7,328.6z
		 M880.1,331.1l-1.5,0.1c0.1,1,0.2,2,0.3,3l1.5-0.1C880.3,333,880.2,332,880.1,331.1z M574.4,333.4c-0.6,0.8-1.2,1.6-1.7,2.4
		l1.2,0.9c0.6-0.8,1.2-1.6,1.8-2.4L574.4,333.4z M880.6,336.9l-1.5,0.1c0.1,1,0.2,2,0.3,2.9l1.5-0.2
		C880.8,338.9,880.7,337.9,880.6,336.9z M570.9,338.1c-0.6,0.8-1.2,1.5-1.9,2.3l1.1,1c0.6-0.7,1.3-1.5,1.9-2.3L570.9,338.1z
		 M567.1,342.6c-0.7,0.7-1.3,1.4-2,2.1l1.1,1c0.7-0.7,1.4-1.4,2-2.2L567.1,342.6z M881.3,342.8l-1.5,0.2c0.1,1,0.2,2,0.3,2.9
		l1.5-0.2C881.5,344.8,881.4,343.8,881.3,342.8z M563,346.8c-0.7,0.7-1.4,1.3-2.1,2l1,1.1c0.7-0.7,1.5-1.3,2.2-2L563,346.8z
		 M882,348.7l-1.5,0.2c0.1,1,0.2,2,0.4,2.9l1.5-0.2C882.2,350.6,882.1,349.6,882,348.7z M558.7,350.7c-0.7,0.6-1.5,1.2-2.3,1.8
		l0.9,1.2c0.8-0.6,1.6-1.2,2.3-1.9L558.7,350.7z M554,354.3c-0.8,0.6-1.6,1.1-2.4,1.7l0.8,1.2c0.8-0.5,1.7-1.1,2.5-1.7L554,354.3z
		 M882.7,354.5l-1.5,0.2c0.1,1,0.3,2,0.4,2.9l1.5-0.2C883,356.5,882.9,355.5,882.7,354.5z M549.2,357.5c-0.8,0.5-1.7,1-2.5,1.5
		l0.7,1.3c0.9-0.5,1.7-1,2.6-1.5L549.2,357.5z M544.1,360.4c-0.9,0.4-1.7,0.9-2.6,1.3l0.7,1.3c0.9-0.4,1.8-0.9,2.6-1.3L544.1,360.4z
		 M883.6,360.3l-1.5,0.2c0.2,1,0.3,2,0.5,2.9l1.5-0.2C883.9,362.3,883.7,361.3,883.6,360.3z M538.8,363c-0.9,0.4-1.8,0.8-2.7,1.2
		l0.6,1.4c0.9-0.4,1.8-0.8,2.7-1.2L538.8,363z M533.4,365.3c-0.9,0.4-1.8,0.7-2.7,1.1l0.5,1.4c0.9-0.3,1.9-0.7,2.8-1.1L533.4,365.3z
		 M884.5,366.2l-1.5,0.3c0.2,1,0.3,2,0.5,2.9l1.5-0.3C884.9,368.1,884.7,367.1,884.5,366.2z M527.9,367.3c-0.9,0.3-1.8,0.6-2.8,0.9
		l0.5,1.4c1-0.3,1.9-0.6,2.8-1L527.9,367.3z M522.3,369.1c-0.9,0.3-1.9,0.6-2.8,0.9l0.4,1.4c1-0.3,1.9-0.6,2.8-0.9L522.3,369.1z
		 M516.7,370.8c-0.9,0.3-1.9,0.5-2.8,0.8l0.4,1.4c1-0.3,1.9-0.5,2.9-0.8L516.7,370.8z M511,372.3c-0.9,0.2-1.9,0.5-2.9,0.7l0.3,1.4
		c1-0.2,1.9-0.5,2.9-0.7L511,372.3z M885.6,372l-1.5,0.3c0.2,1,0.4,1.9,0.6,2.9l1.4-0.3C886,373.9,885.8,372.9,885.6,372z
		 M505.3,373.7c-0.9,0.2-1.9,0.4-2.9,0.7l0.3,1.4c1-0.2,1.9-0.4,2.9-0.7L505.3,373.7z M499.6,375.4l-0.1-0.4c-1,0.2-1.9,0.4-2.9,0.6
		l0.3,1.4c0.9-0.2,1.7-0.4,2.6-0.5c0.1,0,0.2,0,0.3-0.1L499.6,375.4z M493.8,376.3c-1,0.2-1.9,0.4-2.9,0.6l0.3,1.5
		c1-0.2,1.9-0.4,2.9-0.6L493.8,376.3z M488,377.4c-1,0.2-1.9,0.4-2.9,0.6l0.3,1.5c1-0.2,1.9-0.4,2.9-0.6L488,377.4z M482.2,378.5
		c-1,0.2-1.9,0.4-2.9,0.5l0.3,1.5c1-0.2,2-0.4,2.9-0.5L482.2,378.5z M886.8,377.7l-1.4,0.3c0.2,1,0.4,1.9,0.6,2.9l1.4-0.3
		C887.2,379.7,887,378.7,886.8,377.7z M476.4,379.6c-1,0.2-1.9,0.3-2.9,0.5l0.3,1.5c1-0.2,2-0.3,2.9-0.5L476.4,379.6z M470.5,380.6
		c-1,0.2-1.9,0.3-2.9,0.5l0.3,1.5c1-0.2,2-0.3,2.9-0.5L470.5,380.6z M464.7,381.6c-1,0.2-1.9,0.3-2.9,0.5l0.2,1.5
		c1-0.2,2-0.3,2.9-0.5L464.7,381.6z M458.9,382.6c-1,0.2-1.9,0.3-2.9,0.5l0.2,1.5c1-0.2,2-0.3,2.9-0.5L458.9,382.6z M453.1,383.6
		c-1,0.2-2,0.4-2.9,0.5l0.3,1.5c1-0.2,1.9-0.4,2.9-0.5L453.1,383.6z M888.1,383.5l-1.4,0.3c0.2,1,0.5,1.9,0.7,2.9l1.4-0.4
		C888.5,385.4,888.3,384.4,888.1,383.5z M447.2,384.7c-1,0.2-1.9,0.4-2.9,0.6l0.3,1.4c0.9-0.2,1.9-0.4,2.9-0.6L447.2,384.7z
		 M441.4,385.9c-1,0.2-1.9,0.5-2.9,0.7l0.4,1.4c0.9-0.2,1.9-0.5,2.9-0.7L441.4,385.9z M435.7,387.4c-1,0.3-1.9,0.5-2.9,0.8l0.4,1.4
		c0.9-0.3,1.9-0.5,2.8-0.8L435.7,387.4z M430,389c-0.9,0.3-1.9,0.6-2.8,0.9l0.5,1.4c0.9-0.3,1.9-0.6,2.8-0.9L430,389z M889.5,389.2
		l-1.4,0.4c0.3,1,0.5,1.9,0.8,2.9l1.4-0.4C890,391.1,889.8,390.1,889.5,389.2z M424.3,390.8c-0.9,0.3-1.9,0.7-2.8,1l0.5,1.4
		c0.9-0.3,1.8-0.7,2.8-1L424.3,390.8z M418.7,392.9c-0.9,0.4-1.9,0.7-2.8,1.1l0.6,1.4c0.9-0.4,1.8-0.7,2.7-1.1L418.7,392.9z
		 M413.3,395.1c-0.9,0.4-1.8,0.8-2.7,1.2l0.6,1.3c0.9-0.4,1.8-0.8,2.7-1.2L413.3,395.1z M891.1,394.8l-1.4,0.4
		c0.3,1,0.6,1.9,0.9,2.8l1.4-0.4C891.7,396.7,891.4,395.8,891.1,394.8z M407.9,397.6c-0.9,0.4-1.8,0.9-2.6,1.4l0.7,1.3
		c0.9-0.5,1.7-0.9,2.6-1.3L407.9,397.6z M402.6,400.4c-0.9,0.5-1.7,1-2.6,1.5l0.8,1.3c0.8-0.5,1.7-1,2.5-1.5L402.6,400.4z
		 M892.9,400.5l-1.4,0.5c0.3,0.9,0.6,1.9,1,2.8l1.4-0.5C893.5,402.3,893.2,401.4,892.9,400.5z M397.5,403.5
		c-0.8,0.5-1.7,1.1-2.5,1.6l0.8,1.2c0.8-0.5,1.6-1.1,2.4-1.6L397.5,403.5z M894.8,406l-1.4,0.5c0.3,0.9,0.7,1.9,1,2.8l1.4-0.5
		C895.5,407.9,895.1,406.9,894.8,406z M392.6,406.8c-0.8,0.6-1.6,1.2-2.4,1.8l0.9,1.2c0.8-0.6,1.6-1.2,2.3-1.8L392.6,406.8z
		 M387.9,410.5c-0.8,0.6-1.5,1.3-2.3,1.9l1,1.1c0.7-0.6,1.5-1.3,2.2-1.9L387.9,410.5z M896.9,411.5l-1.4,0.6
		c0.4,0.9,0.8,1.8,1.2,2.7l1.4-0.6C897.7,413.3,897.3,412.4,896.9,411.5z M383.4,414.4c-0.7,0.7-1.4,1.4-2.1,2.1l1.1,1
		c0.7-0.7,1.4-1.4,2.1-2.1L383.4,414.4z M899.3,416.9l-1.3,0.6c0.4,0.9,0.8,1.8,1.3,2.7l1.3-0.6
		C900.1,418.7,899.7,417.8,899.3,416.9z M379.3,418.7c-0.7,0.7-1.3,1.5-2,2.2l1.1,1c0.6-0.7,1.3-1.5,1.9-2.2L379.3,418.7z
		 M901.8,422.2l-1.3,0.7c0.5,0.9,0.9,1.8,1.4,2.6l1.3-0.7C902.7,423.9,902.3,423,901.8,422.2z M375.4,423.2
		c-0.6,0.8-1.2,1.6-1.8,2.4l1.2,0.9c0.6-0.8,1.2-1.6,1.8-2.3L375.4,423.2z M904.6,427.3l-1.3,0.7c0.5,0.9,1,1.7,1.5,2.6l1.3-0.8
		C905.6,429,905.1,428.1,904.6,427.3z M371.9,428.1c-0.5,0.8-1.1,1.7-1.6,2.5l1.3,0.8c0.5-0.8,1-1.7,1.6-2.5L371.9,428.1z
		 M907.7,432.3l-1.2,0.8c0.5,0.8,1.1,1.7,1.7,2.5l1.2-0.8C908.8,433.9,908.2,433.1,907.7,432.3z M368.8,433.1
		c-0.5,0.9-1,1.7-1.4,2.6l1.3,0.7c0.4-0.9,0.9-1.7,1.4-2.6L368.8,433.1z M911,437.1l-1.2,0.9c0.6,0.8,1.2,1.6,1.8,2.4l1.2-0.9
		C912.2,438.7,911.6,437.9,911,437.1z M366.1,438.4c-0.4,0.9-0.8,1.8-1.2,2.7l1.4,0.6c0.4-0.9,0.8-1.8,1.2-2.7L366.1,438.4z
		 M914.6,441.7l-1.1,0.9c0.6,0.8,1.3,1.5,1.9,2.3l1.1-1C915.9,443.2,915.3,442.5,914.6,441.7z M363.7,443.9c-0.4,0.9-0.7,1.9-1,2.8
		l1.4,0.5c0.3-0.9,0.7-1.8,1-2.8L363.7,443.9z M918.5,446.2l-1.1,1c0.7,0.7,1.4,1.4,2,2.2l1.1-1
		C919.8,447.6,919.1,446.9,918.5,446.2z M361.8,449.6c-0.3,0.9-0.6,1.9-0.8,2.9l1.4,0.4c0.3-0.9,0.5-1.9,0.8-2.8L361.8,449.6z
		 M922.6,450.4l-1,1.1c0.7,0.7,1.4,1.4,2.2,2l1-1.1C924,451.7,923.3,451,922.6,450.4z M926.9,454.3l-1,1.1c0.7,0.6,1.5,1.3,2.2,1.9
		l1-1.1C928.3,455.6,927.6,455,926.9,454.3z M360.2,455.3c-0.2,1-0.5,1.9-0.7,2.9l1.4,0.3c0.2-1,0.4-1.9,0.7-2.9L360.2,455.3z
		 M931.4,458.1l-0.9,1.1c0.7,0.6,1.5,1.2,2.3,1.8l0.9-1.2C932.9,459.4,932.1,458.7,931.4,458.1z M358.9,461.1
		c-0.2,1-0.3,1.9-0.5,2.9l1.5,0.2c0.2-1,0.3-1.9,0.5-2.9L358.9,461.1z M936,461.8l-0.9,1.2c0.8,0.6,1.6,1.2,2.4,1.8l0.9-1.2
		C937.6,462.9,936.8,462.3,936,461.8z M940.7,465.2l-0.9,1.2c0.8,0.6,1.6,1.1,2.4,1.7l0.8-1.2C942.3,466.4,941.5,465.8,940.7,465.2z
		 M358,467c-0.1,1-0.2,2-0.3,3l1.5,0.2c0.1-1,0.2-2,0.3-2.9L358,467z M945.6,468.6l-0.8,1.2c0.8,0.6,1.6,1.1,2.4,1.7l0.8-1.2
		C947.2,469.7,946.4,469.2,945.6,468.6z M950.5,471.9l-0.8,1.2l2.4,1.7l0.8-1.2L950.5,471.9z M357.4,472.9c-0.1,1-0.2,2-0.2,3
		l1.5,0.1c0.1-1,0.1-2,0.2-2.9L357.4,472.9z M955.3,475.3l-0.8,1.2c0.8,0.6,1.6,1.1,2.4,1.7l0.8-1.2
		C957,476.4,956.2,475.8,955.3,475.3z M960.2,478.6l-0.8,1.2c0.8,0.6,1.6,1.1,2.4,1.7l0.9-1.2C961.8,479.7,961,479.2,960.2,478.6z
		 M357,478.8c0,1-0.1,2-0.1,3h1.5c0-1,0-2,0.1-2.9L357,478.8z M965.1,482l-0.9,1.2c0.8,0.6,1.6,1.2,2.4,1.7l0.9-1.2
		C966.7,483.2,965.9,482.6,965.1,482z M358.4,484.7h-1.5c0,1,0,2,0,3h1.5C358.4,486.7,358.4,485.7,358.4,484.7z M969.8,485.5
		l-0.9,1.2c0.8,0.6,1.6,1.2,2.3,1.8l0.9-1.2C971.4,486.7,970.6,486.1,969.8,485.5z M974.9,489.5c-0.1-0.1-0.3-0.2-0.4-0.3l-0.9,1.2
		c0.6,0.5,1.1,0.9,1.7,1.4c0.2,0.2,0.4,0.3,0.6,0.5l0.9-1.1C976.2,490.5,975.5,490,974.9,489.5z M358.5,490.6l-1.5,0.1
		c0,1,0.1,2,0.1,3l1.5-0.1C358.6,492.6,358.5,491.6,358.5,490.6z M979.1,493l-1,1.1c0.7,0.6,1.5,1.3,2.2,1.9l1-1.1
		C980.6,494.3,979.8,493.6,979.1,493z M358.8,496.5l-1.5,0.1c0.1,1,0.1,2,0.2,3l1.5-0.1C358.9,498.5,358.9,497.5,358.8,496.5z
		 M983.5,496.9l-1,1.1c0.7,0.7,1.4,1.3,2.1,2l1-1.1C985,498.3,984.2,497.6,983.5,496.9z M987.8,501l-1,1c0.7,0.7,1.4,1.4,2.1,2.1
		l1.1-1C989.2,502.4,988.5,501.7,987.8,501z M359.3,502.4l-1.5,0.1c0.1,1,0.2,2,0.3,3l1.5-0.2C359.5,504.3,359.4,503.3,359.3,502.4z
		 M991.9,505.3l-1.1,1c0.7,0.7,1.3,1.4,2,2.2l1.1-1C993.3,506.7,992.6,506,991.9,505.3z M359.9,508.2l-1.5,0.2c0.1,1,0.2,2,0.4,2.9
		l1.5-0.2C360.2,510.2,360,509.2,359.9,508.2z M995.9,509.7l-1.1,1c0.6,0.7,1.3,1.5,1.9,2.2l1.1-0.9
		C997.2,511.2,996.5,510.4,995.9,509.7z M360.7,514.1l-1.5,0.2c0.1,1,0.3,2,0.4,2.9l1.5-0.2C361,516,360.8,515.1,360.7,514.1z
		 M999.7,514.3l-1.2,0.9c0.6,0.8,1.2,1.5,1.8,2.3l1.2-0.9C1000.9,515.8,1000.3,515,999.7,514.3z M1003.3,519l-1.2,0.9
		c0.6,0.8,1.2,1.6,1.7,2.4l1.2-0.9C1004.4,520.6,1003.9,519.7,1003.3,519z M361.6,519.9l-1.5,0.2c0.2,1,0.3,2,0.5,2.9l1.5-0.3
		C361.9,521.9,361.8,520.9,361.6,519.9z M1006.7,523.8l-1.2,0.8c0.6,0.8,1.1,1.6,1.6,2.4l1.2-0.8
		C1007.8,525.4,1007.3,524.6,1006.7,523.8z M362.8,526.5l-0.1-0.8l-1.5,0.3l0.1,0.8c0.1,0.7,0.3,1.4,0.4,2.1l1.5-0.2
		C363,528,362.9,527.2,362.8,526.5z M1010,528.7l-1.2,0.8c0.5,0.8,1.1,1.7,1.6,2.5l1.3-0.8C1011.1,530.4,1010.5,529.6,1010,528.7z
		 M363.6,531.6l-1.5,0.2c0.1,1,0.2,2,0.3,2.9l1.5-0.1C363.8,533.6,363.7,532.6,363.6,531.6z M1013.1,533.8l-1.3,0.7
		c0.5,0.8,1,1.7,1.4,2.6l1.3-0.7C1014.1,535.5,1013.6,534.7,1013.1,533.8z M364.1,537.5l-1.5,0.1c0.1,1,0.1,2,0.1,2.9h1.5
		C364.2,539.5,364.2,538.5,364.1,537.5z M1016,539l-1.3,0.7c0.5,0.9,0.9,1.7,1.4,2.6l1.3-0.7C1016.9,540.8,1016.4,539.9,1016,539z
		 M362.7,543.5c0,1-0.1,2-0.1,2.9l1.5,0.1c0.1-1,0.1-2,0.1-3H362.7z M1018.7,544.3l-1.3,0.7c0.4,0.9,0.9,1.8,1.3,2.6l1.3-0.6
		C1019.6,546.1,1019.1,545.2,1018.7,544.3z M362.3,549.3c-0.1,1-0.2,1.9-0.4,2.9l1.5,0.2c0.2-1,0.3-2,0.4-3L362.3,549.3z
		 M1021.3,549.6l-1.3,0.6c0.4,0.9,0.8,1.8,1.2,2.7l1.4-0.6C1022.1,551.4,1021.7,550.5,1021.3,549.6z M361.4,555
		c-0.2,0.9-0.4,1.9-0.7,2.8l1.4,0.4c0.3-1,0.5-1.9,0.7-2.9L361.4,555z M1023.7,555.1l-1.4,0.6c0.4,0.9,0.8,1.8,1.1,2.7l1.4-0.6
		C1024.4,556.9,1024,556,1023.7,555.1z M1025.9,560.6l-1.4,0.5c0.4,0.9,0.7,1.8,1,2.8l1.4-0.5
		C1026.6,562.4,1026.2,561.5,1025.9,560.6z M359.9,560.7c-0.3,0.9-0.6,1.8-0.9,2.8l1.4,0.5c0.3-0.9,0.7-1.9,1-2.8L359.9,560.7z
		 M1027.9,566.1l-1.4,0.5c0.3,0.9,0.6,1.9,0.9,2.8l1.4-0.5C1028.5,568,1028.2,567.1,1027.9,566.1z M357.9,566.2
		c-0.4,0.9-0.8,1.8-1.2,2.7l1.3,0.6c0.4-0.9,0.8-1.8,1.2-2.7L357.9,566.2z M355.4,571.4c-0.4,0.8-0.9,1.7-1.4,2.6l1.3,0.7
		c0.5-0.9,1-1.7,1.4-2.6L355.4,571.4z M1029.7,571.8l-1.4,0.4c0.3,0.9,0.6,1.9,0.8,2.8l1.4-0.4
		C1030.3,573.7,1030,572.7,1029.7,571.8z M352.5,576.5c-0.5,0.8-1,1.6-1.6,2.5l1.2,0.8c0.6-0.8,1.1-1.7,1.6-2.5L352.5,576.5z
		 M1031.4,577.5l-1.4,0.4c0.3,0.9,0.5,1.9,0.7,2.8l1.4-0.4C1031.9,579.4,1031.6,578.4,1031.4,577.5z M349.3,581.5
		c-0.5,0.8-1.1,1.6-1.7,2.4l1.2,0.9c0.6-0.8,1.2-1.6,1.7-2.4L349.3,581.5z M1032.8,583.3l-1.4,0.3c0.2,1,0.4,1.9,0.6,2.9l1.4-0.3
		C1033.2,585.2,1033,584.2,1032.8,583.3z M345.9,586.2c-0.6,0.7-1.1,1.5-1.8,2.4l1.2,0.9c0.6-0.8,1.2-1.6,1.8-2.4L345.9,586.2z
		 M1034,589.1l-1.5,0.3c0.2,1,0.3,1.9,0.5,2.9l1.5-0.2C1034.3,591,1034.2,590,1034,589.1z M342.4,590.9c-0.6,0.8-1.2,1.6-1.8,2.3
		l1.2,0.9c0.6-0.8,1.2-1.6,1.8-2.3L342.4,590.9z M1035,594.9l-1.5,0.2c0.1,1,0.3,1.9,0.4,2.9l1.5-0.2
		C1035.2,596.9,1035.1,595.9,1035,594.9z M338.7,595.6l-1.8,2.3l1.2,0.9l1.8-2.3L338.7,595.6z M335.1,600.2
		c-0.6,0.8-1.2,1.6-1.8,2.3l1.2,0.9c0.6-0.8,1.2-1.6,1.8-2.3L335.1,600.2z M1035.7,600.8l-1.5,0.1c0.1,1,0.2,2,0.3,2.9l1.5-0.1
		C1035.9,602.8,1035.8,601.8,1035.7,600.8z M331.4,604.9c-0.6,0.8-1.2,1.6-1.8,2.4l1.2,0.9c0.6-0.8,1.2-1.6,1.8-2.4L331.4,604.9z
		 M1036.2,606.8l-1.5,0.1c0.1,1,0.1,2,0.1,2.9l1.5-0.1C1036.3,608.7,1036.2,607.7,1036.2,606.8z M327.9,609.7
		c-0.6,0.8-1.2,1.6-1.7,2.4l1.2,0.9c0.6-0.8,1.1-1.6,1.7-2.4L327.9,609.7z M1036.4,612.7h-1.5c0,0.8,0,1.6,0,2.3c0,0.2,0,0.4,0,0.6
		h1.5c0-0.2,0-0.4,0-0.6C1036.4,614.3,1036.4,613.5,1036.4,612.7z M324.5,614.5c-0.6,0.8-1.1,1.6-1.7,2.5l1.2,0.8
		c0.5-0.8,1.1-1.6,1.6-2.4L324.5,614.5z M1034.9,618.6c0,1-0.1,2-0.1,2.9l1.5,0.1c0-1,0.1-2,0.1-3H1034.9z M321.2,619.5
		c-0.5,0.8-1.1,1.7-1.6,2.5l1.3,0.8c0.5-0.8,1-1.7,1.6-2.5L321.2,619.5z M1034.6,624.5c0,0.6-0.1,1.2-0.1,1.8c0,0.4-0.1,0.8-0.1,1.1
		l1.5,0.1c0.1-0.7,0.1-1.4,0.2-2.2c0-0.3,0-0.5,0.1-0.8L1034.6,624.5z M318.1,624.5c-0.5,0.9-1,1.7-1.5,2.6l1.3,0.7
		c0.5-0.8,1-1.7,1.5-2.5L318.1,624.5z M315.2,629.7c-0.5,0.9-0.9,1.8-1.4,2.6l1.3,0.7c0.4-0.9,0.9-1.7,1.4-2.6L315.2,629.7z
		 M1034.1,630.3c-0.1,1-0.2,1.9-0.4,2.9l1.5,0.2c0.1-1,0.3-2,0.4-2.9L1034.1,630.3z M312.5,635c-0.4,0.9-0.9,1.8-1.3,2.7l1.3,0.6
		c0.4-0.9,0.8-1.8,1.2-2.7L312.5,635z M1034.3,636.3l-1-0.2c-0.1,0.8-0.3,1.7-0.4,2.6c0,0.1,0,0.2-0.1,0.3l1.2,0.2h0.2l0.1-0.6
		c0.1-0.8,0.3-1.6,0.4-2.3H1034.3z M310,640.4c-0.4,0.9-0.8,1.8-1.1,2.7l1.4,0.5c0.4-0.9,0.7-1.8,1.1-2.7L310,640.4z M1032.4,642
		L1032.4,642c-0.1,0.1-0.2,0.3-0.2,0.4c-0.2,0.8-0.3,1.7-0.5,2.5l1.4,0.3c0.2-1,0.4-1.9,0.6-2.9L1032.4,642z M307.8,645.9
		c-0.3,0.9-0.7,1.9-1,2.8l1.4,0.5c0.3-0.9,0.7-1.9,1-2.8L307.8,645.9z M1031,647.7c-0.2,0.9-0.5,1.9-0.7,2.9l1.4,0.4
		c0.3-1,0.5-1.9,0.7-2.9L1031,647.7z M305.9,651.5c-0.3,0.9-0.6,1.9-0.9,2.8l1.4,0.4c0.3-0.9,0.6-1.9,0.9-2.8L305.9,651.5z
		 M1029.5,653.4c-0.3,0.9-0.5,1.9-0.8,2.8l1.4,0.4c0.3-0.9,0.6-1.9,0.8-2.8L1029.5,653.4z M304.2,657.2c-0.3,1-0.5,1.9-0.7,2.9
		l1.4,0.3c0.2-0.9,0.5-1.9,0.7-2.8L304.2,657.2z M1027.8,659c-0.3,0.9-0.6,1.9-0.9,2.8l1.4,0.5c0.3-0.9,0.6-1.9,1-2.8L1027.8,659z
		 M302.8,663c-0.2,1-0.4,2-0.6,2.9l1.5,0.3c0.2-1,0.4-1.9,0.5-2.9L302.8,663z M1025.9,664.5c-0.3,0.9-0.7,1.8-1,2.7l1.4,0.5
		c0.4-0.9,0.7-1.9,1.1-2.8L1025.9,664.5z M301.8,668.9c-0.1,1-0.3,2-0.4,3l1.5,0.2c0.1-1,0.2-1.9,0.4-2.9L301.8,668.9z M1023.7,670
		c-0.4,0.9-0.8,1.8-1.1,2.7l1.4,0.6c0.4-0.9,0.8-1.8,1.2-2.7L1023.7,670z M302.5,674.9l-1.3-0.1c-0.1,1-0.2,2-0.2,3l1.5,0.1
		c0.1-1,0.1-1.9,0.2-2.9c0,0,0,0,0-0.1H302.5z M1021.4,675.4c-0.4,0.9-0.8,1.8-1.2,2.7l1.3,0.6c0.4-0.9,0.8-1.8,1.3-2.7
		L1021.4,675.4z M302.3,680.8h-1.5c0,0.8,0,1.6,0,2.4c0,0.2,0,0.4,0,0.6h1.5c0-0.2,0-0.4,0-0.6C302.2,682.4,302.3,681.6,302.3,680.8
		z M1018.8,680.7c-0.4,0.9-0.9,1.8-1.3,2.6l1.3,0.7c0.5-0.9,0.9-1.8,1.3-2.6L1018.8,680.7z M1017,686.4l-0.8-0.5
		c-0.5,0.9-0.9,1.7-1.4,2.6l1.3,0.7c0.3-0.6,0.6-1.1,0.9-1.7c0.2-0.3,0.3-0.6,0.5-0.9L1017,686.4z M302.3,686.7l-1.5,0.1
		c0,1,0.1,2,0.2,3l1.5-0.1C302.4,688.6,302.3,687.7,302.3,686.7z M1013.3,691.1c-0.5,0.8-1,1.7-1.5,2.5l1.3,0.8
		c0.5-0.8,1-1.7,1.5-2.6L1013.3,691.1z M302.7,692.5l-1.5,0.1c0.1,1,0.2,2,0.3,3l1.5-0.2C302.9,694.5,302.8,693.5,302.7,692.5z
		 M1010.2,696.1c-0.5,0.8-1,1.7-1.6,2.5l1.2,0.8c0.5-0.8,1.1-1.7,1.6-2.5L1010.2,696.1z M303.4,698.4l-1.5,0.2c0.2,1,0.3,2,0.5,2.9
		l1.5-0.3C303.8,700.3,303.6,699.3,303.4,698.4z M1007,701.1c-0.5,0.8-1.1,1.6-1.6,2.4l1.2,0.8c0.6-0.8,1.1-1.6,1.7-2.5L1007,701.1z
		 M304.5,704.1l-1.4,0.3c0.2,1,0.4,1.9,0.7,2.9l1.4-0.4C305,706.1,304.8,705.1,304.5,704.1z M1003.7,706c-0.4,0.6-0.9,1.3-1.4,1.9
		c-0.1,0.2-0.2,0.3-0.3,0.5l0.2,0.2l1,0.7c0.6-0.8,1.2-1.6,1.7-2.4L1003.7,706z M306.7,712.3c-0.3-0.8-0.5-1.6-0.7-2.4l-1.4,0.4l0,0
		c0.3,0.9,0.6,1.9,0.9,2.8l1.4-0.4C306.8,712.5,306.8,712.4,306.7,712.3z M1000.2,710.7c-0.6,0.8-1.2,1.6-1.8,2.3l1.2,0.9
		c0.6-0.8,1.2-1.6,1.8-2.4L1000.2,710.7z M996.6,715.4c-0.6,0.8-1.2,1.5-1.8,2.3l1.1,0.9c0.6-0.8,1.2-1.6,1.9-2.3L996.6,715.4z
		 M307.8,715.4l-1.4,0.5c0.3,0.9,0.7,1.9,1,2.8l1.4-0.5C308.4,717.3,308.1,716.3,307.8,715.4z M992.9,720c-0.6,0.7-1.3,1.5-1.9,2.3
		l1.1,1c0.6-0.8,1.3-1.5,1.9-2.3L992.9,720z M309.9,720.9l-1.4,0.6c0.4,0.9,0.8,1.8,1.2,2.7l1.3-0.6
		C310.7,722.7,310.3,721.8,309.9,720.9z M989.1,724.5c-0.6,0.7-1.3,1.5-2,2.2l1.1,1c0.7-0.7,1.3-1.5,2-2.2L989.1,724.5z
		 M312.3,726.2l-1.3,0.7c0.4,0.9,0.9,1.8,1.4,2.6l1.3-0.7C313.2,728,312.7,727.1,312.3,726.2z M985.2,728.9c-0.7,0.7-1.3,1.4-2,2.2
		l1.1,1c0.7-0.7,1.4-1.5,2-2.2L985.2,728.9z M315.1,731.4l-1.3,0.7c0.5,0.9,1,1.7,1.5,2.6l1.3-0.8
		C316,733.1,315.5,732.2,315.1,731.4z M981.1,733.2c-0.7,0.7-1.4,1.4-2,2.1l1.1,1c0.7-0.7,1.4-1.4,2.1-2.1L981.1,733.2z
		 M318.1,736.4l-1.2,0.8c0.5,0.8,1.1,1.7,1.6,2.5l1.2-0.8C319.1,738,318.6,737.2,318.1,736.4z M977,737.4c-0.7,0.7-1.4,1.4-2.1,2.1
		l1,1.1c0.7-0.7,1.4-1.4,2.1-2.1L977,737.4z M321.4,741.2l-1.2,0.9c0.6,0.8,1.2,1.6,1.8,2.4l1.2-0.9
		C322.6,742.8,322,742,321.4,741.2z M972.8,741.5c-0.3,0.3-0.6,0.6-0.9,0.9c-0.4,0.4-0.8,0.8-1.2,1.2l0.3,0.3l0.7,0.7
		c0.7-0.7,1.4-1.4,2.1-2L972.8,741.5z M969.4,746.5l-0.9-1c0,0,0,0-0.1,0.1c-0.7,0.7-1.4,1.3-2.1,1.9l0.6,0.6l0.4,0.5
		c0.6-0.5,1.2-1.1,1.8-1.6c0.1-0.1,0.3-0.2,0.4-0.4L969.4,746.5z M325,745.9l-1.1,0.9c0.3,0.4,0.6,0.7,0.9,1.1
		c0.3,0.4,0.7,0.8,1,1.2l0.6-0.6l0.5-0.4C326.2,747.4,325.6,746.6,325,745.9z M964.2,749.5c-0.7,0.7-1.5,1.3-2.2,2l1,1.1
		c0.7-0.6,1.5-1.3,2.2-2L964.2,749.5z M328.8,750.3l-1.1,1c0.7,0.7,1.4,1.5,2,2.2l1.1-1C330.2,751.8,329.5,751,328.8,750.3z
		 M959.7,753.4c-0.7,0.6-1.3,1.1-2,1.7c-0.1,0.1-0.2,0.2-0.3,0.2l0.1,0.1l0.9,1c0.7-0.6,1.5-1.3,2.3-1.9L959.7,753.4z M332.9,754.5
		l-1,1.1c0.7,0.7,1.4,1.4,2.2,2.1l1-1.1C334.3,755.9,333.6,755.2,332.9,754.5z M955.9,758.2l-0.3-0.4l-0.4-0.4l-0.1-0.1
		c-0.8,0.6-1.5,1.3-2.3,1.9l0.8,1l0.1,0.2c0.5-0.4,0.9-0.8,1.4-1.1c0.1-0.1,0.2-0.2,0.3-0.2c0.2-0.2,0.4-0.3,0.6-0.5L955.9,758.2z
		 M337.2,758.5l-1,1.1c0.7,0.7,1.5,1.3,2.3,1.9l1-1.1C338.7,759.8,337.9,759.2,337.2,758.5z M950.6,760.9c-0.8,0.6-1.6,1.2-2.3,1.8
		l0.9,1.2c0.8-0.6,1.5-1.2,2.3-1.8L950.6,760.9z M341.7,762.3l-0.9,1.2c0.8,0.6,1.6,1.2,2.4,1.8l0.9-1.2
		C343.2,763.5,342.5,762.9,341.7,762.3z M945.9,764.6c-0.8,0.6-1.5,1.2-2.3,1.7c0,0,0,0-0.1,0.1l0,0l0.9,1.1
		c0.8-0.6,1.6-1.2,2.4-1.8L945.9,764.6z M346.4,765.8l-0.9,1.2c0.8,0.6,1.6,1.1,2.4,1.7l0.8-1.2C348,767,347.2,766.4,346.4,765.8z
		 M941.2,768.1c-0.6,0.5-1.2,0.9-1.8,1.3c-0.2,0.1-0.4,0.3-0.6,0.4l0.4,0.6l0.4,0.6c0.8-0.6,1.6-1.2,2.4-1.8L941.2,768.1z
		 M351.3,769.1l-0.8,1.2c0.8,0.5,1.7,1.1,2.5,1.6l0.8-1.3C352.9,770.2,352.1,769.6,351.3,769.1z M936.4,771.6
		c-0.8,0.6-1.6,1.1-2.4,1.7l0.9,1.2c0.8-0.6,1.6-1.1,2.4-1.7L936.4,771.6z M356.3,772.2l-0.7,1.3c0.9,0.5,1.7,1,2.6,1.4l0.7-1.3
		C358,773.1,357.1,772.6,356.3,772.2z M361.5,774.9l-0.7,1.3c0.9,0.4,1.8,0.9,2.7,1.3l0.6-1.3C363.2,775.8,362.3,775.4,361.5,774.9z
		 M931.6,775c-0.8,0.6-1.6,1.1-2.4,1.7l0.8,1.2c0.8-0.5,1.6-1.1,2.5-1.7L931.6,775z M366.8,777.5l-0.6,1.4c0.9,0.4,1.8,0.8,2.7,1.2
		l0.6-1.4C368.6,778.3,367.7,777.9,366.8,777.5z M926.7,778.3c-0.8,0.5-1.6,1.1-2.4,1.6c0,0-0.1,0-0.1,0.1l0.1,0.1l0.7,1.1
		c0.8-0.5,1.6-1.1,2.5-1.6L926.7,778.3z M372.2,779.7l-0.5,1.4c0.9,0.4,1.8,0.7,2.8,1.1l0.5-1.4C374,780.4,373.1,780.1,372.2,779.7z
		 M377.7,781.8l-0.5,1.4l0,0l0,0c0.9,0.3,1.9,0.6,2.8,0.9l0.4-1.4C379.6,782.4,378.6,782.1,377.7,781.8z M921.7,781.5
		c-0.9,0.6-1.7,1.1-2.5,1.6l0.8,1.3c0.8-0.5,1.6-1,2.5-1.6L921.7,781.5z M384.9,784C384.9,783.9,384.9,783.9,384.9,784
		c-0.5-0.1-1-0.3-1.6-0.4l-0.1,0.4l-0.1,0.2l-0.2,0.8c0.5,0.2,1.1,0.3,1.6,0.5c0.2,0.1,0.4,0.1,0.6,0.2c0.2,0.1,0.5,0.1,0.7,0.2
		l0.2-0.6v-0.1l0.2-0.7C385.7,784.2,385.3,784.1,384.9,784z M389,785l-0.3,1.4c1,0.2,1.9,0.5,2.9,0.7l0.3-1.4
		C390.9,785.5,389.9,785.2,389,785z M916.7,784.6c-0.9,0.5-1.7,1-2.5,1.5l0.7,1.3c0.8-0.5,1.7-1,2.6-1.5L916.7,784.6z M395.4,786.4
		c-0.2,0-0.4-0.1-0.6-0.1l-0.3,1.5c0.5,0.1,0.9,0.2,1.4,0.3s1,0.2,1.5,0.3l0.3-1.5C396.9,786.7,396.1,786.5,395.4,786.4z
		 M400.6,787.3C400.6,787.3,400.5,787.3,400.6,787.3l-0.2,0.7l-0.1,0.8c0.1,0,0.3,0,0.4,0.1c0.1,0,0.1,0,0.2,0
		c0.8,0.1,1.6,0.2,2.4,0.3l0.2-1.5C402.5,787.6,401.5,787.4,400.6,787.3z M408.5,788.3c-0.2,0-0.5,0-0.7-0.1c-0.5,0-1-0.1-1.4-0.2
		l-0.2,1.5c0.3,0,0.6,0.1,0.9,0.1c0.1,0,0.3,0,0.4,0c0.2,0,0.5,0,0.7,0.1c0.3,0,0.6,0.1,0.9,0.1l0.1-1v-0.4
		C409,788.3,408.8,788.3,408.5,788.3z M412.2,788.6l-0.1,1.5c1,0.1,2,0.1,3,0.2l0.1-1.5C414.2,788.7,413.2,788.6,412.2,788.6z
		 M418.1,788.8v1.5c1,0,2,0.1,3,0.1v-1.5C420,788.9,419.1,788.9,418.1,788.8z M424,788.9v1.5h3v-1.5H424z M429.9,788.9v1.5h3v-1.5
		H429.9z M435.8,788.9v1.5h3v-1.5H435.8z M441.7,788.9v1.5h3v-1.5H441.7z M447.6,788.9v1.5h3v-1.5H447.6z M453.6,788.9v1.5h3v-1.5
		H453.6z M459.5,788.9v1.5h3v-1.5H459.5z M465.4,788.9v1.5h3v-1.5H465.4z M471.3,788.9v1.5h3v-1.5H471.3z M477.2,788.9v1.5h3v-1.5
		H477.2z M483.1,788.9v1.5h3v-1.5H483.1z M489,788.9v1.5h3v-1.5H489z M495,788.9v1.5h3v-1.5H495z M500.9,788.9v1.5h3v-1.5H500.9z
		 M506.8,788.9v1.5h3v-1.5H506.8z M512.7,788.9v1.5h3v-1.5H512.7z M518.6,788.9v1.5h3v-1.5H518.6z M524.5,788.9v1.5h3v-1.5H524.5z
		 M530.5,788.9v1.5h3v-1.5H530.5z M536.4,788.9v1.5h3v-1.5H536.4z M542.3,788.9v1.5h3v-1.5H542.3z M548.2,788.9v1.5h3v-1.5H548.2z
		 M554.1,788.9v1.5h3v-1.5H554.1z M560,788.9v1.5h3v-1.5H560z M566,788.9v1.5h3v-1.5H566z M571.9,788.9v1.5h3v-1.5H571.9z
		 M577.8,788.9v1.5h3v-1.5H577.8z M583.7,788.9v1.5h3v-1.5H583.7z M589.6,788.9v1.5h3v-1.5H589.6z M595.5,788.9v1.5h3v-1.5H595.5z
		 M601.5,788.9v1.5h3v-1.5H601.5z M607.4,788.9v1.5h3v-1.5H607.4z M613.3,788.9v1.5h3v-1.5H613.3z M619.2,788.9v1.5h3v-1.5H619.2z
		 M625.1,788.9v1.5h3v-1.5H625.1z M631.1,788.9v1.5h3v-1.5H631.1z M637,788.9v1.5h3v-1.5H637z M642.9,788.9v1.5h3.3v-1.5H642.9z
		 M649.2,788.9v1.5h3v-1.5H649.2z M655.1,788.9v1.5h3v-1.5H655.1z M661,788.9v1.5h3v-1.5H661z M666.9,788.9v1.5h3v-1.5H666.9z
		 M672.8,788.9v1.5h3v-1.5H672.8z M678.8,788.9v1.5h3v-1.5H678.8z M684.7,788.9v1.5h3v-1.5H684.7z M690.6,788.9v1.5h3v-1.5H690.6z
		 M696.5,788.9v1.5h3v-1.5H696.5z M702.4,788.9v1.5h3v-1.5H702.4z M708.3,788.9v1.5h3v-1.5H708.3z M714.2,788.9v1.5h3v-1.5H714.2z
		 M720.1,788.9v1.5h3v-1.5H720.1z M726.1,788.9v1.5h3v-1.5H726.1z M732,788.9v1.5h3v-1.5H732z M737.9,788.9v1.5h3v-1.5H737.9z
		 M743.8,788.9v1.5h3v-1.5H743.8z M749.7,788.9v1.5h3v-1.5H749.7z M755.6,788.9v1.5h3v-1.5H755.6z M761.5,788.9v1.5h3v-1.5H761.5z
		 M767.4,788.9v1.5h3v-1.5H767.4z M773.3,788.9v1.5h3v-1.5H773.3z M779.3,788.9v1.5h3v-1.5H779.3z M785.2,788.9v1.5h3v-1.5H785.2z
		 M791.1,788.9v1.5h3v-1.5H791.1z M797,788.9v1.5h3v-1.5H797z M802.9,788.9v1.5h3v-1.5H802.9z M808.8,788.9v1.5h3v-1.5H808.8z
		 M814.7,788.9v1.5h3v-1.5H814.7z M820.6,788.9v1.5h3v-1.5H820.6z M826.6,788.9v1.5h3v-1.5H826.6z M832.5,788.9v1.5h3v-1.5H832.5z
		 M838.4,788.9v1.5h3v-1.5H838.4z M844.3,788.9v1.5h3v-1.5H844.3z M850.2,788.9v1.5h3v-1.5H850.2z M856.1,788.9v1.5h3v-1.5H856.1z
		 M862,788.9v1.5h3v-1.5H862z M867.9,788.9v1.5h3v-1.5H867.9z M873.9,788.9v1.5h3v-1.5H873.9z M879.8,788.9v1.5h3v-1.5H879.8z
		 M885.7,788.9v1.5h3v-1.5H885.7z M891.6,788.9v1.5h3v-1.5H891.6z M897.5,788.9v1.5h3v-1.5H897.5z M903.4,788.9v1.5h3v-1.5H903.4z
		 M911.6,787.6c-1.6,0.9-2.6,1.4-2.6,1.4l0.3,0.6v0.8h0.2l0,0l0.1-0.1c0,0,0.5-0.3,1.3-0.7c0.4-0.2,0.8-0.4,1.3-0.7L911.6,787.6z"/>
</g>
<path class="st1" d="M975.2,427.3c13.1,88.2-45.9,107.5,0.9,199.7c7.6,14.9,17.9,31.7,31.8,51.1C1107.5,817,931.3,952.3,838.1,901
	c-78.8-43.4-100.9-49.8-162.3-17.7c-11.2,5.8-23.7,13-38,21.4c-93.3,54.6-138-0.5-166.1-50.6c-16.9-30.2-39.3-34.4-65.9-40.1
	c-1.4-0.3-2.7-0.6-4.1-0.9c-6.1-1.3-12.4-2.8-18.9-4.8c-11.1-3.3-22.7-7.9-34.8-15.4c-62.8-38.9-66.1-128.4,0.3-183.6
	c0.4-0.3,0.8-0.7,1.3-1.1c36.6-30.9,51.2-80.6,37.8-126.6c-0.4-1.4-0.8-2.8-1.2-4.2c-16.1-63.5,23.4-129.1,87-144.7
	c30.3-7.4,60.7-2.5,86,11.5c30.2,16.8,66.8,17.5,97.7,2.2c0.8-0.4,1.7-0.8,2.4-1.2c9.4-4.7,18.4-10,26.9-16.2
	c52.1-38,119.6-49.3,181.4-29.1c22.9,7.5,45.1,19.3,63.6,37.5c0.4,0.4,0.9,0.9,1.3,1.3c4.2,4.2,8.2,8.8,11.9,13.8
	C958.9,371.5,969.9,396,975.2,427.3z"/>
<g id="leafs_1_">
	<g id="leaf_x5F_2_6_">
		<g id="leaf_x5F_2_7_">
			<path id="leaf_x5F_2_8_" class="st2" d="M51.9,827.7c2.3,4,4.7,7,7,7.6c4.2,1.1,17-5.3,28.9-11.2c0.2-0.1,0.4-0.2,0.5-0.3
				c0.3-0.2,0.6-0.3,1-0.5c0.2-0.1,0.5-0.2,0.7-0.4c0.8-0.4,1.6-0.8,2.4-1.2c0.5-0.3,1-0.5,1.5-0.8c1.3-0.7,2.6-1.3,3.9-1.9
				c0.3-0.1,0.6-0.3,0.9-0.4c0.6-0.3,1.2-0.6,1.8-0.8c0.3-0.1,0.6-0.3,0.9-0.4c0.4-0.2,0.7-0.3,1.1-0.5c0.6-0.3,1.2-0.5,1.8-0.7
				c0.1,0,0.2-0.1,0.2-0.1c0.4-0.1,0.7-0.3,1-0.4c0.2-0.1,0.4-0.2,0.6-0.2c0.1,0,0.2-0.1,0.3-0.1h0.1c0.1,0,0.1,0,0.2-0.1
				c0.1,0,0.2-0.1,0.3-0.1c0,0,0,0,0.1,0c0.2-0.1,0.4-0.1,0.5-0.2l0,0c0.1,0,0.2,0,0.2-0.1l0,0c0.1,0,0.2,0,0.2-0.1
				c0.2,0,0.3-0.1,0.5-0.1h0.1c0.1,0,0.2,0,0.3-0.1c0.1,0,0.1,0,0.2,0c0.3,0,0.6,0,0.8,0h0.1c0.1,0,0.2,0.1,0.3,0.2
				c0,0,0.1,0,0.1,0.1c0,0,0,0.1,0.1,0.1c0,0,0,0.1,0.1,0.1c0,0.1,0.1,0.1,0.1,0.2l0,0v0.1l0,0c0,0,0,0.1,0,0.2l0,0
				c0,0.1,0,0.1,0,0.2v0.1v0.1c0,0.1,0,0.1,0,0.2l0,0c0,0.1,0,0.1-0.1,0.2c0,0.1-0.1,0.2-0.1,0.3v0.1v0.1c-0.1,0.1-0.1,0.2-0.2,0.3
				c0,0,0,0.1-0.1,0.1c0,0.1-0.1,0.2-0.1,0.2s0,0.1-0.1,0.1c-0.1,0.1-0.2,0.3-0.3,0.4c0,0-0.1,0.1-0.1,0.2c-0.2,0.2-0.4,0.5-0.6,0.7
				c-0.1,0.1-0.1,0.2-0.2,0.3s-0.2,0.3-0.4,0.4c-6.6,7.5-25.3,20.7-27,21.8c-2.1,1.4-5,0-5,0c-2.4,4,9,15.5,11,17
				c1.9,1.5,2.7,2.5,5.8,2.7c3.1,0.1,14.7-9.6,20.4-16.7c5.6-7,17.9-21.6,17.9-21.6l2.4,0.2c0,0-5.8,7.4-9.7,11.6
				c-3.9,4.2-14.1,16-16.3,18.7c-2.2,2.7-8.3,5.4-8.3,5.4s1.2,4,12.9,7.5s8,8.8,24.4,10.7c0.6,0.1,1.1,0.1,1.6,0.2
				c0.8,0.1,1.6,0.1,2.3,0.1c14.4,0.4,25.4-5.7,30.2-9.9c1.2-1.1,2.7-1.5,4.5-1.7c1.2-0.2,2.6-0.3,4-0.5c4.9-0.7,10.6-2.4,15.8-11.7
				c0.5-0.8,0.9-1.8,1.4-2.7c0.2-0.4,0.4-0.8,0.5-1.1c2.5-5.5,3.4-10,3.4-13.6c-0.1-4.1-1.5-7.1-3.5-9.5c-0.5-0.5-1-1-1.5-1.5
				c-1.9-1.6-4-2.9-6.1-3.9c-7.4-3.7-17.4-4.6-17.1-7.7c0-0.1,0-0.2,0.1-0.3c1.3-4.2,27,0,35.2-9.5c5.1-5.9,3.7-17.3,0.8-26.9
				c-0.3-1.1-0.6-2.1-1-3.1c-1.6-4.7-3.5-8.7-4.9-10.9c-4.6-7.1-12.2-10.2-16-12.2s-2.5-1.6-9.9-8.3c-7.4-6.6-21.9-5.8-21.9-5.8
				c10.7,12.7,8.2,38.6,8.2,38.6l-2.7-0.5c0,0-1.4-23.8-13.8-33.2c-12.4-9.3-30.1-2.4-30.1-2.4c-7.2-9.9-24.9-1.4-33.7,3.7
				c-0.8,0.5-1.5,0.9-2.1,1.3c-0.7,0.4-1.3,0.8-1.8,1.1c-0.7,0.5-1.1,0.8-1.2,0.8c0.1,0,0.6-0.2,1.5-0.3c0.6-0.1,1.5-0.1,2.5,0
				c0.9,0.1,2,0.4,3.2,0.8c4.8,1.7,12,6.3,21.3,18.3c15.3,19.7,16.6,28.2,16.7,30.4c0,0.4,0,0.6,0,0.6l-2-0.3c0,0-0.5-1.2-1.6-3.3
				c-2.2-4.4-6.6-12.8-13-22.5c-6.6-10.1-13.7-17.9-20.2-21.2c-1.2-0.6-2.3-1-3.4-1.3c-0.9-0.2-1.8-0.4-2.7-0.4
				c-0.6,0-1.2,0-1.7,0.1c-8.4,1.4-16.6,15.1-16.6,15.1C87.9,773.6,92.5,792,92.5,792l-2.3-0.3c-22.3-25.2-34.9-24.5-38.7-22
				s-8,17-9.5,20.7c-1.4,3.7-6.6,4-6.8,4.1c0.1,0,1.1,0,2.3,0.5s2.6,1.3,3.1,3.1v0.1c0,0.2,0.1,0.4,0.2,0.7v0.1l0,0
				c0,0.1,0,0.1,0.1,0.2c0,0.1,0,0.1,0.1,0.2c0,0.1,0,0.1,0.1,0.2c0.1,0.3,0.2,0.6,0.3,1c0,0.1,0.1,0.2,0.1,0.3s0,0.1,0.1,0.2
				c0,0.1,0,0.1,0.1,0.2c0.1,0.2,0.1,0.4,0.2,0.6c0,0.1,0.1,0.2,0.1,0.3c0.3,1.1,0.8,2.4,1.2,3.8c0,0.1,0.1,0.2,0.1,0.3
				c0.1,0.2,0.1,0.4,0.2,0.7c0,0.1,0.1,0.3,0.1,0.4c0.1,0.4,0.2,0.7,0.4,1.1c0.1,0.1,0.1,0.3,0.2,0.4v0.1c0.1,0.2,0.1,0.3,0.2,0.5
				c0.3,0.8,0.6,1.7,0.9,2.6c0.2,0.4,0.3,0.9,0.5,1.3c0,0.1,0,0.1,0.1,0.2c0.1,0.3,0.2,0.6,0.3,0.9c0,0,0,0,0,0.1
				c0.1,0.3,0.3,0.7,0.4,1c0.3,0.7,0.5,1.3,0.8,2c0.1,0.2,0.1,0.3,0.2,0.5c0.1,0.2,0.2,0.4,0.2,0.5c0.1,0.2,0.1,0.3,0.2,0.5
				c0.4,0.8,0.7,1.7,1.1,2.5c0.1,0.2,0.1,0.3,0.2,0.5v0.1c0.1,0.3,0.3,0.6,0.4,0.9c0.2,0.3,0.3,0.6,0.5,0.9l0,0
				c0.1,0.2,0.2,0.3,0.2,0.5C50.8,825.8,51.4,826.8,51.9,827.7z M89.6,805.4c-0.5,2.1-16.3,12.8-17.8,6.1
				C69.9,803.6,90,803.3,89.6,805.4z M131.9,861.7c-2-5.9,15.2-38.7,21.1-34.9c5.9,3.7-4.5,21.5-9.8,26.6
				C137.9,858.6,133.9,867.5,131.9,861.7z M133,757.9c-1.8,1-11.7-14-11.9-14.3c0.2,0.1,3.4,1.9,6.3,4.5
				C130.3,750.9,134.8,756.9,133,757.9z M144.8,794.3c-8.6,6.2-14.9-23.2-8.3-24.5C143.3,768.5,153.4,788.1,144.8,794.3z"/>
			<path id="leaf_x5F_1_8_" class="st3" d="M51.9,827.7c2.3,4,4.7,7,7,7.6c4.2,1.1,17-5.3,28.9-11.2c0.2-0.1,0.4-0.2,0.5-0.3
				c0.3-0.2,0.6-0.3,1-0.5c0.2-0.1,0.5-0.2,0.7-0.4c0.8-0.4,1.6-0.8,2.4-1.2c0.5-0.3,1-0.5,1.5-0.8c1.3-0.7,2.6-1.3,3.9-1.9
				c0.3-0.1,0.6-0.3,0.9-0.4c0.6-0.3,1.2-0.6,1.8-0.8c0.3-0.1,0.6-0.3,0.9-0.4c0.4-0.2,0.7-0.3,1.1-0.5c0.6-0.3,1.2-0.5,1.8-0.7
				c0.1,0,0.2-0.1,0.2-0.1c0.4-0.1,0.7-0.3,1-0.4c0.2-0.1,0.4-0.2,0.6-0.2c0.1,0,0.2-0.1,0.3-0.1h0.1c0.1,0,0.1,0,0.2-0.1
				c0.1,0,0.2-0.1,0.3-0.1c0,0,0,0,0.1,0c0.2-0.1,0.4-0.1,0.5-0.2l0,0c0.1,0,0.2,0,0.2-0.1l0,0c0.1,0,0.2,0,0.2-0.1
				c0.2,0,0.3-0.1,0.5-0.1h0.1c0.1,0,0.2,0,0.3-0.1c0.1,0,0.1,0,0.2,0c0.3,0,0.6,0,0.8,0h0.1c0.1,0,0.2,0.1,0.3,0.2
				c0,0,0.1,0,0.1,0.1c0,0,0,0.1,0.1,0.1c0,0,0,0.1,0.1,0.1c0,0.1,0.1,0.1,0.1,0.2l0,0v0.1l0,0c0,0,0,0.1,0,0.2l0,0
				c0,0.1,0,0.1,0,0.2v0.1v0.1c0,0.1,0,0.1,0,0.2l0,0c0,0.1,0,0.1-0.1,0.2c0,0.1-0.1,0.2-0.1,0.3v0.1v0.1c-0.1,0.1-0.1,0.2-0.2,0.3
				c0,0,0,0.1-0.1,0.1c0,0.1-0.1,0.2-0.1,0.2s0,0.1-0.1,0.1c-0.1,0.1-0.2,0.3-0.3,0.4c0,0.1-0.1,0.1-0.1,0.2
				c-0.2,0.2-0.4,0.5-0.6,0.7c-0.1,0.1-0.1,0.2-0.2,0.3s-0.2,0.3-0.4,0.4c-6.6,7.5-25.3,20.7-27,21.8c-2.1,1.4-5,0-5,0
				c-2.4,4,9,15.5,11,17c1.9,1.5,2.7,2.5,5.8,2.7c3.1,0.1,14.7-9.6,20.4-16.7c5.6-7,17.9-21.6,17.9-21.6l2.4,0.2
				c0,0-5.8,7.4-9.7,11.6c-3.9,4.2-14.1,16-16.3,18.7c-2.2,2.7-8.3,5.4-8.3,5.4s1.2,4,12.9,7.5s8,8.8,24.4,10.7
				c0.6,0.1,1.1,0.1,1.6,0.2c0.8,0.1,1.6,0.1,2.3,0.1c14.4,0.4,25.4-5.7,30.2-9.9c1.2-1.1,2.7-1.5,4.5-1.7c1.2-0.2,2.6-0.3,4-0.5
				c4.9-0.7,10.6-2.4,15.8-11.7c0.5-0.8,0.9-1.8,1.4-2.7c0.2-0.4,0.4-0.8,0.5-1.1c2.5-5.5,3.4-10,3.4-13.6c-0.1-4.1-1.5-7.1-3.5-9.5
				c-0.5-0.5-1-1-1.5-1.5c-1.9-1.6-4-2.9-6.1-3.9c-7.4-3.7-17.4-4.6-17.1-7.7c-0.1,0-0.3,0-0.5,0c-0.6,0-1.2-0.1-1.9-0.1
				c-0.2,0-0.4,0-0.5,0c-0.6,0-1.2-0.1-1.9-0.1h-0.4c-0.4,0-0.9-0.1-1.3-0.1l0,0c-0.2,0-0.5,0-0.7-0.1c-0.4,0-0.7-0.1-1.1-0.1
				c-3.8-0.3-8-0.6-11.7-0.8c-0.6,0-1.1-0.1-1.7-0.1l0,0c-0.5,0-1-0.1-1.4-0.1c-0.7,0-1.3-0.1-1.9-0.1c-0.4,0-0.8,0-1.1-0.1
				c-2-0.1-3.7-0.2-4.8-0.3c-0.9,0-1.8-0.1-2.7-0.1l0,0c-0.6,0-1.2-0.1-1.9-0.1h-0.1c-2.3-0.2-4.6-0.3-6.7-0.5
				c-0.7-0.1-1.4-0.1-2-0.2c-2.6-0.2-4.4-0.4-4.4-0.4s-6.1-1-12.7-2.2c-0.7-0.1-1.4-0.2-2.1-0.4l0,0c-0.8-0.1-1.5-0.3-2.3-0.4l0,0
				l0,0c-1.3-0.2-2.6-0.5-3.8-0.7l0,0c-1.1-0.2-2.1-0.4-3.1-0.5c-3.5-0.6-11-1.8-18.6-2.9l-2.2-0.3l0,0c-0.6-0.1-1.3-0.2-1.9-0.3
				c-0.8-0.1-1.7-0.3-2.5-0.4c-8.4-1.3-15.6-2.3-15.6-2.3c-0.1,0-1.3-0.2-21.3-4.3c1.2,0.5,2.6,1.3,3.1,3.1v0.1
				c0,0.2,0.1,0.4,0.2,0.7v0.1l0,0c0,0.1,0,0.1,0.1,0.2c0,0.1,0,0.1,0.1,0.2c0,0.1,0,0.1,0.1,0.2c0.1,0.3,0.2,0.6,0.3,1
				c0,0.1,0.1,0.2,0.1,0.3s0,0.1,0.1,0.2c0,0.1,0,0.1,0.1,0.2c0.1,0.2,0.1,0.4,0.2,0.6c0,0.1,0.1,0.2,0.1,0.3
				c0.3,1.1,0.8,2.4,1.2,3.8c0,0.1,0.1,0.2,0.1,0.3c0.1,0.2,0.1,0.4,0.2,0.7c0,0.1,0.1,0.2,0.1,0.4c0.1,0.4,0.2,0.7,0.4,1.1
				c0.1,0.1,0.1,0.3,0.2,0.4v0.1c0.1,0.2,0.1,0.3,0.2,0.5c0.3,0.8,0.6,1.7,0.9,2.6c0.2,0.4,0.3,0.9,0.5,1.3c0,0.1,0,0.1,0.1,0.2
				c0.1,0.3,0.2,0.6,0.3,0.9c0,0,0,0,0,0.1c0.1,0.3,0.3,0.7,0.4,1c0.3,0.7,0.5,1.3,0.8,2c0.1,0.2,0.1,0.3,0.2,0.5
				c0.1,0.2,0.2,0.4,0.2,0.5c0.1,0.2,0.1,0.3,0.2,0.5c0.4,0.8,0.7,1.7,1.1,2.5c0.1,0.2,0.1,0.3,0.2,0.5v0.1c0.1,0.3,0.3,0.6,0.4,0.9
				c0.2,0.3,0.3,0.6,0.5,0.9l0,0c0.1,0.2,0.2,0.3,0.2,0.5C50.8,825.8,51.4,826.8,51.9,827.7z M89.6,805.4
				c-0.5,2.1-16.3,12.8-17.8,6.1C69.9,803.6,90,803.3,89.6,805.4z M131.9,861.7c-2-5.9,15.2-38.7,21.1-34.9
				c5.9,3.7-4.5,21.5-9.8,26.6C137.9,858.6,133.9,867.5,131.9,861.7z"/>
			<path id="object_x5F_14_1_" class="st2" d="M74.4,801.9c0.8,0.1,1.7,0.2,2.5,0.4c-1.9,1.1-3.8,2.3-5.6,3.4
				c-2.4,1.5-4.8,3.1-7.1,4.7c-1.1,0.8-2.3,1.7-3.4,2.5c-1.2,0.8-2.4,1.6-3.8,2.2c-1.4,0.6-2.8,0.7-4.3,0.6
				c-1.4-0.1-2.8-0.4-4.2-0.8c1.4,0.3,2.8,0.5,4.2,0.6c1.4,0,2.8-0.2,4.1-0.8s2.4-1.4,3.5-2.3c1.1-0.9,2.2-1.8,3.3-2.7
				c2.2-1.8,4.6-3.5,6.9-5.1C71.8,803.7,73.1,802.8,74.4,801.9z"/>
			<path id="object_x5F_13_1_" class="st3" d="M79.5,803.9c-1.1-2.2-2.3-4.4-3.6-6.5c-1.3-2.1-2.8-4.2-4.4-6.1
				c-0.8-1-1.6-1.9-2.5-2.8c-0.9-0.9-1.8-1.7-2.8-2.5c-2-1.5-4.3-2.7-6.8-3c2.5,0.2,4.9,1.2,7.1,2.6c1.1,0.7,2.1,1.5,3,2.3
				c1,0.8,1.9,1.7,2.7,2.7c1.7,1.9,3.3,3.9,4.8,5.9c1.5,2.1,2.9,4.2,4.1,6.5L79.5,803.9z"/>
			<path id="object_x5F_12_1_" class="st3" d="M71.5,763.4h4.1c1.4,0,2.7,0,4.1,0.1s2.7,0.3,4,0.8c1.3,0.6,2.3,1.5,3.2,2.5
				c0.9,1,1.7,2.1,2.5,3.3c0.8,1.1,1.5,2.3,2.3,3.4c1.5,2.3,3,4.5,4.4,6.9c2.8,4.6,5.5,9.4,8.1,14.2s5.1,9.6,7.5,14.5l-1.6,0.8
				c-2.3-4.9-4.6-9.8-7-14.6s-5-9.6-7.6-14.3c-1.3-2.4-2.7-4.7-4.2-7c-0.7-1.2-1.4-2.3-2.2-3.4c-0.7-1.1-1.5-2.3-2.3-3.3
				s-1.8-2-3-2.5c-1.2-0.6-2.5-0.8-3.9-0.9C76.9,763.5,74.2,763.5,71.5,763.4z"/>
			<path id="object_x5F_11_2_" class="st2" d="M130.1,810.6c-2.9,3.9-6,7.7-9.1,11.4c-3.3,4-6.7,7.9-10.3,11.7
				c-3.6,3.8-7.2,7.5-11.3,10.8c-2,1.7-4.1,3.2-6.3,4.5c-1.1,0.6-2.3,1.2-3.5,1.7c-0.6,0.2-1.3,0.4-1.9,0.5s-1.1,0.1-1.7,0
				c0.6,0,1.1,0,1.7-0.1s1.3-0.3,1.9-0.5c1.2-0.4,2.4-1.1,3.5-1.7c2.2-1.4,4.2-3,6.2-4.7c3.9-3.4,7.4-7.2,10.9-11.1
				c3.4-3.9,6.7-7.9,9.9-12c2.8-3.5,5.5-7.1,8.1-10.7C128.7,810.4,129.4,810.5,130.1,810.6z"/>
			<path id="object_x5F_10_4_" class="st3" d="M93.6,747.6c3.4,0.3,6.8,1.1,10,2.5s6,3.5,8.4,6c1.2,1.3,2.3,2.6,3.3,4s2,2.8,2.9,4.3
				c1.8,3,3.4,6,4.8,9.2c1.5,3.1,2.8,6.3,4.1,9.5l4,9.5c2.6,6.4,5.3,12.7,7.8,19.2l-1.7,0.6c-2.4-6.4-4.9-12.9-7.4-19.3l-3.8-9.6
				c-1.3-3.2-2.5-6.4-3.9-9.5s-2.9-6.2-4.6-9.2s-3.6-5.8-5.9-8.3s-5-4.7-8.1-6.1C100.4,748.8,97,748.1,93.6,747.6z"/>
			<path id="object_x5F_9_4_" class="st2" d="M149.3,811.8L149.3,811.8c-0.2,0.3-0.3,0.7-0.5,1c-0.3,0.6-0.7,1.2-1,1.9
				c-0.7,1.2-1.4,2.4-2.1,3.6c-1.5,2.4-3,4.8-4.5,7.1l-4.6,7c-1.5,2.4-2.9,4.7-4.4,7.2l-4.2,7.3c-1.4,2.4-2.9,4.8-4.5,7.1
				c-1.7,2.3-3.5,4.5-5.8,6.1c-1.2,0.8-2.4,1.4-3.8,1.8c-1.4,0.4-2.8,0.4-4.2,0.3c1.4,0.1,2.8,0,4.1-0.4c1.3-0.4,2.6-1.1,3.7-1.9
				c2.2-1.7,4-3.9,5.6-6.2s3-4.7,4.3-7.2l4-7.4c1.4-2.5,2.7-4.9,4.2-7.3l4.4-7.1c1.5-2.4,2.9-4.8,4.3-7.2c0.7-1.2,1.4-2.4,2-3.6
				c0.3-0.6,0.6-1.2,1-1.8c0.1-0.1,0.1-0.2,0.1-0.3C148,811.7,148.7,811.8,149.3,811.8z"/>
			<path id="object_x5F_8_4_" class="st3" d="M131.1,745c1.5,0.3,2.9,1,4.1,1.9c1.2,0.9,2.3,2,3.3,3.2c1.9,2.4,3.5,5.1,4.8,7.9
				c2.6,5.6,4.5,11.5,6.1,17.4c0.8,3,1.5,6,2.1,9s1.1,6.1,1.3,9.2c0.3,3.1,0.3,6.2,0.3,9.3c-0.1,3.1-0.3,6.2-0.7,9.3l-1.8-0.3
				c0.5-2.9,0.8-6,0.9-9c0.1-3,0.1-6.1,0-9.1c-0.2-3-0.6-6.1-1.1-9.1s-1.1-6-1.8-9c-1.4-6-3.1-11.9-5.6-17.5
				c-1.2-2.8-2.7-5.5-4.5-7.9c-0.9-1.2-2-2.3-3.2-3.3C134,746,132.6,745.3,131.1,745z"/>
			<path id="object_x5F_7_4_" class="st2" d="M165.9,813c-0.8,5.4-1.7,10.9-2.7,16.3c-1,5.5-2.2,10.9-3.7,16.3
				c-1.5,5.4-3.1,10.7-5.5,15.8c-0.6,1.3-1.2,2.5-2,3.7c-0.7,1.2-1.5,2.3-2.4,3.4c-0.9,1.1-2,2-3.2,2.7s-2.6,1.2-4,1.2
				c1.4-0.1,2.7-0.5,3.9-1.3c1.2-0.7,2.2-1.7,3-2.8c0.9-1.1,1.6-2.2,2.3-3.4s1.3-2.4,1.9-3.7c2.2-5.1,3.7-10.4,5-15.8
				c1.3-5.4,2.3-10.9,3.2-16.3c0.9-5.4,1.6-10.8,2.3-16.2C164.7,812.9,165.3,813,165.9,813z"/>
			<path id="object_x5F_6_4_" class="st3" d="M163.4,749.3c1.2,0.7,2.2,1.8,2.9,2.9c0.8,1.2,1.4,2.4,1.9,3.8c1,2.6,1.5,5.4,1.9,8.2
				c0.7,5.5,0.8,11.1,0.7,16.7c-0.1,5.6-0.5,11.2-1.1,16.7c-0.5,5.6-1.2,10.1-2,15.6l-1.7-0.1c0.9-5.5,1.7-10.1,2.4-15.6
				s1.2-11,1.5-16.6c0.3-5.5,0.4-11.1-0.2-16.6c-0.3-2.8-0.8-5.5-1.6-8.1c-0.4-1.3-1-2.6-1.7-3.8C165.5,751.1,164.5,750,163.4,749.3
				z"/>
			<path id="object_x5F_5_4_" class="st2" d="M169.5,813.3c0.4,1.8,0.8,3.6,1.2,5.4c0.2,0.8,0.3,1.6,0.5,2.4
				c0.3,1.6,0.6,3.2,0.8,4.8c0.7,4.7,1.3,9.5,1.4,14.2c0.1,4.8-0.1,9.6-1.2,14.3c-0.6,2.3-1.4,4.6-2.6,6.7c-1.2,2.1-2.9,3.9-5,5
				c2.1-1.2,3.7-3.1,4.8-5.1c1.1-2.1,1.9-4.3,2.3-6.7c0.9-4.6,1-9.4,0.7-14.1c-0.3-4.7-1-9.4-1.8-14.1c-0.8-4.4-1.8-8.7-3.1-13
				C168.3,813.2,168.9,813.2,169.5,813.3z"/>
			<path id="object_x5F_4_2_" class="st3" d="M184.8,761.2c0.5,2.3,0.7,4.6,0.7,6.9c0,2.3-0.2,4.6-0.6,6.9
				c-0.7,4.6-1.8,9.1-3.2,13.6c-1.3,4.4-2.9,8.8-4.6,13.1c-0.3,0.9-0.7,1.7-1.1,2.6c-0.3,0.6-0.5,1.2-0.8,1.8
				c-1.2,2.8-2.4,5.6-3.8,8.3l-1.6-0.8c1.3-2.4,2.5-4.9,3.7-7.3c0.3-0.6,0.6-1.2,0.8-1.8c0.5-1.1,1-2.2,1.5-3.3
				c1.8-4.2,3.5-8.5,5-12.9s2.7-8.8,3.6-13.4c0.4-2.3,0.7-4.6,0.8-6.9C185.4,765.8,185.3,763.4,184.8,761.2z"/>
			<path id="object_x5F_3_2_" class="st3" d="M200.8,780.8c-1,3.1-2.3,6.1-4,8.9c-1.6,2.8-3.5,5.5-5.8,7.9c-1.1,1.2-2.4,2.3-3.7,3.3
				s-2.7,1.9-4.2,2.7s-3,1.4-4.6,1.9c-0.8,0.2-1.6,0.5-2.4,0.6c-0.3,0.1-0.5,0.1-0.8,0.1c-0.6,0.1-1.1,0.1-1.7,0.2
				c0.3-0.6,0.6-1.2,0.8-1.8c0.1,0,0.2,0,0.3,0c0.4,0,0.8-0.1,1.2-0.1c0.1,0,0.2,0,0.2,0c0.7-0.1,1.4-0.3,2.1-0.4
				c1.5-0.4,3-0.9,4.4-1.6c1.4-0.7,2.8-1.5,4.1-2.4s2.5-1.9,3.7-3c2.3-2.2,4.3-4.7,6.1-7.5C198.2,786.7,199.6,783.8,200.8,780.8z"/>
			<path id="object_x5F_2_2_" class="st2" d="M189.5,851.6c0.2-1.6,0.2-3.3,0.1-4.9c-0.2-1.6-0.5-3.2-1-4.8s-1.1-3.1-1.9-4.5
				c-0.8-1.4-1.6-2.8-2.6-4.2c-1.9-2.6-4.1-5-6.6-7.2c-1.2-1.1-2.5-2.1-3.8-3.1s-2.7-1.9-4-2.7l0.9-1.5c1.4,0.9,2.8,1.9,4.1,3
				s2.5,2.2,3.7,3.3c2.4,2.3,4.6,4.9,6.4,7.7c0.9,1.4,1.7,2.9,2.4,4.4s1.3,3.1,1.7,4.7c0.4,1.6,0.7,3.3,0.8,4.9
				C189.8,848.3,189.7,850,189.5,851.6z"/>
			<path id="object_x5F_1_2_" class="st2" d="M102.7,806.4L102.7,806.4c1.2,0.2,2.5,0.4,3.8,0.7c-3.3,0.8-6.6,1.8-9.8,3
				c-3.4,1.2-6.7,2.6-10,4.1s-6.4,3.3-9.5,5.2l-2.3,1.5c-0.7,0.5-1.5,1-2.2,1.6l-1.1,0.8c-0.4,0.3-0.7,0.6-1.1,0.8l-2.1,1.7l2-1.8
				c0.3-0.3,0.7-0.6,1-0.9l1.1-0.8c0.7-0.6,1.4-1.1,2.1-1.7l2.2-1.6c3-2,6.1-3.9,9.4-5.6c3.2-1.7,6.5-3.2,9.9-4.6
				C98.4,807.9,100.5,807.1,102.7,806.4z"/>
		</g>
	</g>
	<g id="leaf_x5F_1_5_">
		<g id="leaf_x5F_1_6_">
			<path id="leaf_x5F_2_5_" class="st2" d="M234.3,596.7c-2.7-5.6-3.6-10.7-3.8-13.7c0.2-0.2,0.3-0.4,0.5-0.6
				c3-4.3,4.9-15.3,3.9-20.9c-1-5.7-16.4-17.3-18.7-20.8c-1.1-1.6-1.9-3.8-2.4-5.8c0.1-2.7,0.1-4.8-0.2-5.9
				c-1.1-5.2-25.1-22.8-25.1-22.8c4,14.8,0.1,68.6-4.6,73.8c-4.7,5.1-6.9,1.3-5.3-2.3c1.6-3.6,0.7-29.1-0.5-32.2
				c-1.3-3.1-1.3-6.6-1.6-13.7c-0.3-7-4.4-17.1-7.2-21.9c-2.8-4.8-21.4-8.2-24.8-8.5c-3.4-0.3-7.9-7.2-7.9-7.2
				c0.6,2.9,9.4,12.4,13.4,23.8c3.9,11.2,3.4,21.1,3.4,21.3c-0.1-0.4-7.1-23-10.3-28.2s-10.9-13.5-13.4-15.1c-2.5-1.5-18-2.6-19.8-2
				s-1.9,2.5-1.9,2.5c1.8-1.7,3,0.7,3,0.7c5.7,9.4,26,48,24.5,48.7s-5.1-5.3-8.3-11.2s-10.7-14.1-12.5-17.5s-1.5-4.9-2.3-7.7
				s-4-8.3-5.1-9.5s-5.2,2.8-5.7,1.8c-0.3-0.5,0.1-2.4,0.5-4.1c0.4-1.6,0.9-3,0.9-3.1l0,0c-0.8,1-1.9,2.6-3,4.5
				c-3.7,6.6-8.1,16.9-7.8,19.3c0.4,3.1,5.8,10.1,5.8,10.1c-1.9-0.9-7.5-8.4-7.5-8.4c-2.6,7.1,1,15.6,9.9,19.8
				c4.8,2.3,7.1,6.5,10.4,10.6c-1.9-0.9-4-1.8-6.2-3c-5.3-2.9-11.7-10.5-11.7-10.5s-0.7,5.3-0.9,11.2c-0.2,5.9,1.1,10.2,2.5,13.2
				c1.4,3.1,9.4,5.1,15.3,7.1s17,9.7,19.2,10.7c2.1,1,11.5,3.8,17.2,4.2s13.4,4.8,11.9,7.5s-26,2.7-32-1.7s-28.4-14.5-28.4-14.5
				c-4.9,6.3,3.4,21.2,5.6,23.4s8.7,3.9,11.2,4.6c2.5,0.7,5.7,4.3,8.5,5.4c2.8,1.1,10.5,0.6,12.9-0.6c2.4-1.1,14.5-0.3,21.4-1.2
				s9.5-0.7,9.2,1.7s-19,6.5-20.9,6.9s-14.1-3.6-15.9-4.1c-1.8-0.5-5.8-0.6-8-0.8s-9.3-2.6-9.3-2.6c1.7,2.9,1.4,5.4,1.4,5.4
				c0.2,1.3,0.5,2.6,0.9,3.8c2.8,8.2,10.9,13.9,22.4,15.5c13.3,1.9,31.6-9.8,32.2-8.5c0.5,1.3-0.5,4-13.1,10.3
				c-12.5,6.3-20.5,4.4-20.5,4.4c14.2,24.5,28.7,16.6,36.7,5c7.9-11.5,13.2-6,8.3,1.9s-14.8,10.9-14.8,10.9c2.9,4.1,11,3.2,16,1.1
				c5-2.2,8.8-10.1,11.6-11.5s5.3,0.4,7.8-0.9c2.5-1.3,5.6-9.1,5-13.1c-0.7-4-3.2-7.5-5.8-11s-2.3-9.8-1.4-10.5
				c1.8-1.5,4.2,0.5,5.4,6.3s17.3,19.4,26.9,6.6C240.7,610.6,238.6,605.5,234.3,596.7z M204.6,602.2c0.8,2-3.1,4.6-4.3,3.8
				C198,604.4,203.8,600.1,204.6,602.2z M176.6,618.5c-1.1-1.7,6.6-7.6,7.7-4C184.9,616.9,177.7,620.3,176.6,618.5z M178.2,604.1
				c2.1-1.1,5-0.7,5.2,1.2c0.2,2.3-3.2,3.2-5.1,2.9c-1.9-0.3-3,1-3.1-0.1C175,607.1,176,605.3,178.2,604.1z M122.6,559.2
				c13.1,4.2,18.6,9,17.3,10.7c-1.3,1.8-6.6,0.6-12.6-2.2c-4.1-1.9-6.9-6.8-8.8-10.3C119.7,558.1,121.1,558.7,122.6,559.2z
				 M230.4,581c0-0.5,0-0.7,0-0.8C230.4,580.3,230.4,580.6,230.4,581z M230.3,583.2c-0.2,4.3-0.8,12.2-2.8,15.7
				c-2.8,5-15.2,10.2-16.5,4.6C209.7,598.3,226,587.9,230.3,583.2z M207.8,567.1c2.6-4.6,4.8-17.8,5.7-27.6c0.5,2,1.1,4.5,1.7,7.2
				c1.6,8-3.5,23.9-6.7,27.9c-3.3,4-8.5,18.1-10.1,16.8C196.7,590.2,203.8,574,207.8,567.1z M193.9,595.5c2.3,1.7-0.1,7.4-2.3,5.8
				C188.8,599.2,191.5,593.8,193.9,595.5z"/>
			<path id="leaf_x5F_1_7_" class="st3" d="M205.9,631.9c-0.7-4-3.2-7.5-5.8-11s-2.3-9.8-1.4-10.5c0,0-0.4-0.1-1.3-0.5
				c-0.3-0.1-0.7-0.3-1.1-0.5c-0.2-0.1-0.4-0.2-0.7-0.3c-0.4-0.2-0.8-0.4-1.2-0.7c-0.3-0.2-0.7-0.4-1-0.6c-0.4-0.2-0.8-0.5-1.2-0.8
				c-0.1-0.1-0.3-0.2-0.4-0.3c-0.6-0.4-1.2-0.8-1.9-1.3c-1.5-1.1-3.3-2.4-5.4-4.1c-0.5-0.4-1.1-0.9-1.6-1.3
				c-0.9-0.7-1.8-1.5-2.8-2.3c-0.5-0.5-1.1-0.9-1.7-1.4c-3.2-2.8-6.9-6.1-11-10c-0.5-0.5-1.1-1-1.6-1.5c-1.8-1.7-3.6-3.5-5.5-5.4
				c-0.5-0.5-1-1-1.5-1.5c-3-2.9-6.1-6.2-9.5-9.7c-0.6-0.6-1.2-1.2-1.8-1.9c-1.4-1.5-2.9-3-4.4-4.6c-0.7-0.7-1.4-1.4-2-2.2
				c-7.1-7.6-15-16.3-23.8-26.2c-12.5-14.2-20-23.8-16-34.9c0.4-1.2,1-2.4,1.7-3.6l0,0c-0.8,1-1.9,2.6-3,4.5
				c-3.7,6.6-8.1,16.9-7.8,19.3c0.4,3.1,5.8,10.1,5.8,10.1c-1.9-0.9-7.5-8.4-7.5-8.4c-2.6,7.1,1,15.6,9.9,19.8
				c4.8,2.3,7.1,6.5,10.4,10.6c-1.9-0.9-4-1.8-6.2-3c-5.3-2.9-11.7-10.5-11.7-10.5s-0.7,5.3-0.9,11.2c-0.2,5.9,1.1,10.2,2.5,13.2
				c1.4,3.1,9.4,5.1,15.3,7.1s17,9.7,19.2,10.7c2.1,1,11.5,3.8,17.2,4.2s13.4,4.8,11.9,7.5s-26,2.7-32-1.7s-28.4-14.5-28.4-14.5
				c-4.9,6.3,3.4,21.2,5.6,23.4s8.7,3.9,11.2,4.6c2.5,0.7,5.7,4.3,8.5,5.4c2.8,1.1,10.5,0.6,12.9-0.6c2.4-1.1,14.5-0.3,21.4-1.2
				s9.5-0.7,9.2,1.7s-19,6.5-20.9,6.9s-14.1-3.6-15.9-4.1c-1.8-0.5-5.8-0.6-8-0.8s-9.3-2.6-9.3-2.6c1.7,2.9,1.4,5.4,1.4,5.4
				c0.2,1.3,0.5,2.6,0.9,3.8c2.8,8.2,10.9,13.9,22.4,15.5c13.3,1.9,31.6-9.8,32.2-8.5c0.5,1.3-0.5,4-13.1,10.3
				c-12.5,6.3-20.5,4.4-20.5,4.4c14.2,24.5,28.7,16.6,36.7,5c7.9-11.5,13.2-6,8.3,1.9s-14.8,10.9-14.8,10.9c2.9,4.1,11,3.2,16,1.1
				c5-2.2,8.8-10.1,11.6-11.5s5.3,0.4,7.8-0.9C203.4,643.7,206.5,635.9,205.9,631.9z M140,570c-1.3,1.8-6.6,0.6-12.6-2.2
				c-4.1-1.9-6.9-6.8-8.8-10.3c1.2,0.7,2.6,1.2,4.1,1.7C135.8,563.5,141.2,568.2,140,570z M184.3,614.6c0.7,2.4-6.5,5.7-7.7,4
				C175.4,616.8,183.2,610.9,184.3,614.6z M183.3,605.4c0.2,2.3-3.2,3.2-5.1,2.9c-1.9-0.3-3,1-3.1-0.1s0.9-2.9,3.1-4
				C180.3,603,183.1,603.4,183.3,605.4z"/>
			<path id="object_x5F_10_3_" class="st2" d="M141.5,645c1.3,0.6,2.7,1.2,4.1,1.6c0.7,0.2,1.4,0.4,2.1,0.5c0.7,0.1,1.5,0.2,2.2,0.2
				s1.5,0,2.2-0.1s1.4-0.2,2.1-0.4c0.7-0.2,1.4-0.4,2.1-0.7c0.7-0.3,1.3-0.6,2-0.9c2.6-1.3,4.9-3.1,7.1-5.1c2.2-1.9,4.2-4,6.3-6.2
				c4-4.3,7.8-8.8,11.7-13.2s7.7-8.9,11.7-13.2l1.5,1.4c-4.1,4.2-8.1,8.5-12.1,12.9c-4,4.3-8,8.7-12.1,12.9c-2.1,2.1-4.2,4.1-6.5,6
				s-4.7,3.6-7.4,4.9c-0.7,0.3-1.4,0.6-2.1,0.9c-0.7,0.2-1.4,0.5-2.1,0.6c-0.7,0.2-1.5,0.3-2.2,0.3c-0.7,0.1-1.5,0.1-2.2,0
				c-0.7,0-1.5-0.1-2.2-0.3c-0.7-0.1-1.4-0.3-2.1-0.5C144.2,646.3,142.8,645.7,141.5,645z"/>
			<path id="object_x5F_9_1_" class="st2" d="M114.3,616.6c3,1.7,6.1,3.2,9.3,4.2c3.2,1.1,6.6,1.8,10,2.1s6.8,0.3,10.2,0
				s6.7-0.9,10.1-1.7c6.6-1.7,13-4.2,19.1-7.1c6.2-2.9,12.1-6.2,18.1-9.6l1,1.8c-6,3.3-12.1,6.5-18.4,9.2
				c-6.3,2.8-12.8,5.1-19.6,6.6c-3.4,0.7-6.8,1.3-10.2,1.5s-6.9,0.1-10.3-0.3c-3.4-0.4-6.8-1.2-10-2.4
				C120.3,620,117.2,618.4,114.3,616.6z"/>
			<path id="object_x5F_8_1_" class="st2" d="M102.9,588.5c2.9,1.7,6,3.2,9.2,4.5c3.1,1.3,6.4,2.4,9.6,3.3c3.3,0.9,6.6,1.7,9.9,2.3
				c3.3,0.6,6.7,1.1,10,1.5c3.4,0.4,6.7,0.6,10.1,0.6c3.4,0.1,6.8,0,10.1-0.4c3.3-0.3,6.7-0.8,9.9-1.7c1.6-0.4,3.2-0.9,4.7-1.6
				c0.8-0.3,1.5-0.7,2.2-1.1c0.7-0.4,1.4-0.8,2.1-1.3l1.2,1.7c-0.8,0.5-1.5,0.9-2.3,1.3c-0.8,0.4-1.6,0.8-2.4,1.1
				c-1.6,0.6-3.3,1.1-5,1.5c-3.4,0.8-6.8,1.3-10.2,1.5s-6.9,0.2-10.3,0.1c-3.4-0.1-6.8-0.5-10.2-0.9s-6.7-1-10.1-1.8
				c-3.3-0.7-6.6-1.6-9.9-2.6s-6.5-2.2-9.6-3.6C108.8,591.8,105.8,590.3,102.9,588.5z"/>
			<path id="object_x5F_7_1_" class="st2" d="M103.1,555.8c4.2,3.3,8.6,6.5,13.1,9.3s9.3,5.4,14.1,7.7c2.4,1.1,4.9,2.1,7.4,3
				s5.1,1.7,7.6,2.2c1.3,0.3,2.6,0.5,3.9,0.7c1.3,0.2,2.6,0.3,3.9,0.2c1.3,0,2.6-0.2,3.7-0.5c1.2-0.3,2.3-0.9,3-1.7l1.5,1.5
				c-0.6,0.6-1.2,1-1.9,1.4c-0.7,0.3-1.4,0.6-2.1,0.8c-1.4,0.4-2.8,0.4-4.2,0.4s-2.8-0.2-4.1-0.4c-1.4-0.2-2.7-0.5-4-0.8
				c-2.6-0.7-5.2-1.5-7.7-2.5s-5-2.1-7.4-3.3c-4.8-2.4-9.5-5.2-14-8.2C111.4,562.6,107.2,559.3,103.1,555.8z"/>
			<path id="object_x5F_6_1_" class="st2" d="M108.8,544.8c2.6,2.1,5.4,4,8.2,5.8c0.4,0.2,0.7,0.4,1.1,0.7l1.1,0.6l0.5,0.3l0.6,0.3
				l1.1,0.6c1.5,0.8,3,1.5,4.5,2.2s3.1,1.3,4.6,1.8c1.6,0.5,3.2,1,4.8,1.4s3.2,0.7,4.9,0.9c0.8,0.1,1.6,0.2,2.4,0.2
				c0.4,0,0.8,0,1.2,0.1c0.2,0,0.4,0,0.6,0h0.3c0.1,0,0.2,0,0.3,0l0.1,2.1c-0.1,0-0.2,0-0.4,0h-0.3c-0.2,0-0.4,0-0.7,0
				c-0.4,0-0.9-0.1-1.3-0.1c-0.9-0.1-1.7-0.2-2.6-0.4c-1.7-0.3-3.3-0.7-5-1.2c-1.6-0.5-3.2-1.1-4.8-1.7c-1.6-0.6-3.1-1.3-4.6-2.1
				c-1.5-0.7-3-1.6-4.5-2.4l-1.1-0.7l-0.5-0.3l-0.5-0.3l-1.1-0.7c-0.4-0.2-0.7-0.5-1-0.7C114,549.1,111.3,547,108.8,544.8z"/>
			<path id="object_x5F_5_1_" class="st3" d="M125.6,511.1c3.1,4.4,6.1,8.9,8.9,13.5c0.7,1.1,1.4,2.3,2.1,3.5c0.7,1.2,1.3,2.4,2,3.5
				c0.3,0.6,0.6,1.2,1,1.8l0.9,1.8l0.9,1.8c0.3,0.6,0.6,1.2,0.9,1.8l0.8,1.9c0.3,0.6,0.5,1.2,0.8,1.9l0.4,0.9
				c0.1,0.3,0.3,0.6,0.4,0.9c0.2,0.6,0.5,1.3,0.7,1.9c1,2.5,1.8,5.2,2.5,7.8c0.7,2.7,1.2,5.4,1.4,8.1c0.1,1.4,0.1,2.8,0.1,4.2
				c0,0.4,0,0.7-0.1,1.1l-0.1,0.5l-0.1,0.5c0,0.2-0.1,0.4-0.1,0.5c0,0.2-0.1,0.4-0.1,0.5c0,0.2-0.1,0.4-0.1,0.5s-0.1,0.2-0.1,0.3
				c0,0,0,0.1-0.1,0.1v0.1v0.1l-1.9-0.9l0,0l0,0v-0.1c0-0.1,0-0.1,0.1-0.2c0-0.1,0.1-0.3,0.1-0.4c0-0.1,0.1-0.3,0.1-0.5
				s0.1-0.3,0.1-0.5l0.1-0.5l0.1-0.5c0.1-0.3,0.1-0.6,0.1-1c0.1-1.3,0.1-2.6,0.1-3.9c-0.1-2.6-0.5-5.3-1.1-7.9
				c-0.6-2.6-1.3-5.2-2.2-7.7c-0.2-0.6-0.4-1.3-0.7-1.9c-0.1-0.3-0.2-0.6-0.3-0.9l-0.4-0.9c-0.2-0.6-0.5-1.3-0.7-1.9l-0.8-1.9
				c-0.3-0.6-0.5-1.2-0.8-1.8l-0.8-1.8l-0.9-1.8c-0.3-0.6-0.6-1.2-0.9-1.8c-0.6-1.2-1.2-2.4-1.9-3.6c-0.6-1.2-1.3-2.4-1.9-3.5
				C131.4,520.2,128.6,515.6,125.6,511.1z"/>
			<path id="object_x5F_4_1_" class="st3" d="M153,514.9c3.2,5.6,6,11.4,8.5,17.4c1.2,3,2.4,6,3.4,9.1s1.9,6.2,2.6,9.3
				c1.5,6.3,2.4,12.8,2.3,19.3c0,0.8,0,1.6,0,2.4c0,0.4,0,0.8-0.1,1.2c0,0.4,0,0.8-0.1,1.2l-0.1,1.2l-0.1,0.6l-0.1,0.6l-0.2,1.2
				l-0.2,1.2c-0.3,1.6-0.6,3.2-1.1,4.8s-1,3.1-1.7,4.7l-1.9-0.9c0.7-1.4,1.3-2.8,1.7-4.3c0.5-1.5,0.9-3,1.2-4.6l0.2-1.2l0.2-1.2
				l0.1-0.6l0.1-0.6l0.1-1.2c0-0.4,0.1-0.8,0.1-1.2s0.1-0.8,0.1-1.2c0-0.8,0.1-1.6,0.1-2.4c0.2-6.4-0.5-12.8-1.8-19
				c-0.6-3.1-1.4-6.2-2.3-9.3c-0.9-3.1-2-6.1-3.1-9.1C158.7,526.4,156,520.6,153,514.9z"/>
			<path id="object_x5F_3_1_" class="st3" d="M200.1,534.3l0.5,2.1c0.1,0.4,0.2,0.7,0.2,1.1l0.2,1.1l0.2,1.1
				c0.1,0.4,0.1,0.7,0.2,1.1l0.2,2.2l0.1,0.5v0.5l0.1,1.1c0,0.7,0.1,1.5,0.1,2.2v2.2l-0.1,2.2c-0.1,2.9-0.4,5.9-0.9,8.8
				c-0.5,2.9-1.1,5.8-1.9,8.6c-0.8,2.8-1.7,5.7-2.7,8.4c-1,2.8-2.1,5.5-3.4,8.2s-2.5,5.3-3.9,7.9c-0.7,1.3-1.4,2.6-2.2,3.9
				c-0.4,0.6-0.8,1.3-1.2,1.9c-0.4,0.6-0.8,1.2-1.2,1.9l-1.7-1.2c0.4-0.6,0.8-1.2,1.2-1.8s0.8-1.2,1.2-1.8c0.8-1.2,1.5-2.5,2.3-3.7
				c1.5-2.5,2.8-5.1,4.1-7.7c1.3-2.6,2.5-5.3,3.5-8c1.1-2.7,2-5.5,2.9-8.3s1.5-5.6,2.1-8.5s0.9-5.8,1.2-8.7l0.1-2.2v-2.2
				c0-0.7,0-1.5,0-2.2v-1.1v-0.5v-0.5l-0.2-2.2c0-0.4-0.1-0.7-0.1-1.1l-0.1-1.1l-0.1-1.1c-0.1-0.4-0.1-0.7-0.2-1.1L200.1,534.3z"/>
			<path id="object_x5F_2_1_" class="st3" d="M226.5,561.8c-0.4,4.9-1.4,9.8-3.3,14.4c-1.8,4.6-4.6,8.8-7.9,12.5l-0.6,0.7l-0.7,0.7
				c-0.2,0.2-0.4,0.4-0.7,0.7c-0.2,0.2-0.4,0.4-0.7,0.6c-0.9,0.8-1.8,1.7-2.8,2.5c-1.9,1.6-4,3-6,4.4l-1.6,1c-0.5,0.3-1,0.7-1.5,1
				l-0.7,0.5c-0.1,0.1-0.2,0.2-0.4,0.3l-0.3,0.3c-0.2,0.2-0.5,0.4-0.7,0.6l-0.7,0.6c-0.9,0.8-1.7,1.7-2.4,2.6l-0.3,0.3
				c-0.1,0.1-0.2,0.2-0.2,0.4c-0.2,0.2-0.3,0.5-0.4,0.7c-0.1,0.2-0.3,0.5-0.4,0.7c-0.1,0.1-0.1,0.2-0.2,0.4l-0.1,0.2v0.1l0,0l0,0
				l-2-0.5v-0.1v-0.1v-0.1l0.1-0.3c0.1-0.2,0.1-0.3,0.2-0.5c0.2-0.3,0.3-0.6,0.5-0.9c0.2-0.3,0.4-0.6,0.6-0.8
				c0.1-0.1,0.2-0.3,0.3-0.4l0.3-0.4c0.8-1,1.7-1.9,2.7-2.8l0.7-0.6c0.2-0.2,0.5-0.4,0.8-0.6l0.4-0.3c0.1-0.1,0.3-0.2,0.4-0.3
				l0.8-0.5c0.5-0.3,1.1-0.7,1.6-1l1.6-0.9c2.1-1.3,4.1-2.6,6.1-4.1c1-0.7,1.9-1.5,2.8-2.3c0.2-0.2,0.5-0.4,0.7-0.6
				c0.2-0.2,0.5-0.4,0.7-0.6l0.7-0.6l0.6-0.6c3.4-3.5,6.2-7.5,8.2-12C224.7,571.5,225.9,566.7,226.5,561.8z"/>
			<path id="object_x5F_1_1_" class="st3" d="M231.5,610.9c-0.7,0.5-1.4,1-2.2,1.4s-1.6,0.6-2.5,0.8c-1.7,0.3-3.5,0.3-5.2,0
				c-1.7-0.2-3.4-0.7-5.1-1.1c-1.7-0.5-3.3-1-5-1.6c-1.6-0.5-3.3-1.1-4.9-1.5c-0.8-0.2-1.7-0.4-2.5-0.5s-1.6-0.2-2.4-0.1
				c-0.8,0-1.6,0.2-2.3,0.4c-0.7,0.3-1.4,0.7-1.9,1.2c-1.1,1-1.8,2.5-2.3,4l-2-0.7c0.3-0.9,0.7-1.7,1.2-2.5s1.1-1.6,1.9-2.2
				c0.7-0.6,1.6-1.1,2.6-1.4c0.9-0.3,1.9-0.4,2.8-0.4c0.9,0,1.8,0.1,2.7,0.3s1.7,0.4,2.6,0.7c1.7,0.5,3.3,1.1,4.9,1.8
				c1.6,0.6,3.2,1.3,4.8,1.8c1.6,0.6,3.3,1.1,5,1.4c1.7,0.3,3.4,0.5,5.1,0.2c0.8-0.1,1.7-0.3,2.5-0.6
				C230,611.9,230.8,611.4,231.5,610.9z"/>
		</g>
	</g>
</g>
<path class="st4" d="M451.3,726.8L344,754l-1.1,0.4l-49.6,17.1c-4.9,1.7-10.1,2.5-15.4,2.4l-35.8-0.8c-3.7-0.1-6.7-2.7-7.3-6.2
	l-6.3-0.1c-4.1-0.1-7.4-3.4-7.4-7.4l-9.2-0.2c-4.2-0.1-7.7-3.5-7.6-7.7c0-3.7,2.7-6.7,6.2-7.4l13.1-2.5c-4.2-0.1-7.4-3.6-7.3-7.8
	c0.1-3.6,2.7-6.6,6.1-7.3l39.7-7.7l14-7.7l0,0l8.1-4.4c3.3-1.8,5.2-5.4,4.7-9.1c-0.8-6.3-5.7-11.5-7.8-13.4l-16.7-8.9
	c-3.5-1.9-4.8-6.2-2.9-9.6c1.7-3.1,5.3-4.5,8.5-3.4l20.8,6.8c12.4,4.1,23.2,11.7,31.2,22l5.1,6.6c4.2,3,9.1,3.4,13.7,2.6
	c0.2,0,0.5-0.1,0.7-0.1c8.2-1.6,63.5-25.2,63.5-25.2l54,11.4L451.3,726.8z"/>
<path class="st5" d="M566.2,510.8c-1.2,19.5-3.9,41.7-8.8,66.3c-3.5,17.5-8.1,36.2-14.1,56.1c-6.4,21.1-14.3,43.4-24.1,67
	c-5.4,12.9-16.1,22.6-29.2,26.3c-5.8,3.6-11.4,6.7-16.5,9.2c-11.4,5.6-21.3,8.7-29.6,10.3c-3.6,0.7-6.9,1-10,1.1
	c-19.2,0.8-28-7.7-28.3-8.8c0-0.1,0-0.2,0.2-0.1l0,0c0.8-0.1,1.6-0.3,2.4-0.5c0.2-0.1,0.5-0.1,0.7-0.2c1.2-0.3,2.4-0.6,3.4-1
	c0.8-0.3,1.5-0.6,2.2-0.9c0.2-0.1,0.4-0.2,0.6-0.3s0.4-0.2,0.5-0.3l0,0c0.2-0.1,0.4-0.2,0.5-0.3c0.5-0.3,1.1-0.6,1.5-0.9
	c0.2-0.1,0.3-0.2,0.5-0.3s0.3-0.2,0.5-0.3s0.3-0.2,0.5-0.3s0.3-0.2,0.5-0.3c0.4-0.3,0.9-0.7,1.3-1l0,0c0.4-0.4,0.8-0.7,1.2-1.1
	c0.1-0.1,0.3-0.3,0.4-0.4c0.5-0.5,1-1,1.4-1.6c0.3-0.4,0.6-0.8,0.9-1.3c0.1-0.1,0.2-0.3,0.3-0.4c0.1-0.1,0.2-0.3,0.3-0.4
	c0.1-0.1,0.2-0.3,0.3-0.4c0.2-0.3,0.3-0.6,0.5-0.9c0.4-0.8,0.7-1.5,1.1-2.3l0,0c0.2-0.6,0.5-1.3,0.7-1.9c0.1-0.2,0.1-0.3,0.1-0.5
	c0.3-1,0.5-2,0.6-3c0.1-0.3,0.1-0.7,0.1-1c0-0.2,0-0.3,0.1-0.5c0-0.3,0.1-0.7,0.1-1.1c0-0.2,0-0.4,0-0.5c0-0.2,0-0.4,0-0.5
	c0-0.7,0-1.4,0-2.1c0-0.3,0-0.7,0-1l0,0c-1-16-12.9-33.1-26.4-34.7l-0.4,0.2l-1.3,0.6l-1.6,0.7l-3.7,1.6l-2.1,0.9l-0.6,0.2l-0.6,0.2
	l0,0c0,0,0.1-0.3,0.2-0.8c0.2-0.5,0.5-1.3,1.1-2.3c0,0,6.2-13.5,24.1-13.3c13.9-9.2,26.9-19.3,28.3-31.1
	c24.7-207.7,69.3-224.2,117.7-237.4c2.2-0.6-3.9,22.5-2.1,31.3C565,441.9,568.7,470.6,566.2,510.8z"/>
<g>
	<path class="st6" d="M429,710.5c0.8,12.2-4.8,23.8-20.7,27.4C416.6,746.2,434.7,742.9,429,710.5z"/>
</g>
<path class="st7" d="M789.9,403.9l-92.7,99L634,427.8l8.8-65.8l8.1-60.5c0,0,123.4-58.3,118.4-29.7c-4.6,26.1-5.2,47.8-3.6,65.5
	C769.8,385.2,789.9,403.9,789.9,403.9z"/>
<path class="st5" d="M887,458.1c-0.1,0.2-2.5,5.8-6.4,15.8c-16.8,43.5-61.3,170.8-65.1,307.9c-0.5,16.3-0.3,32.8,0.5,49.3
	c0.1,2.4,0.2,4.7,0.4,7.1c0,0.7,0.1,1.4,0.1,2.1l1.2,15.6c1.3,6.7,2.7,13.4,4,20.1l0,0l0,0c-105.5,0.7-211.1,1.3-316.6,2
	c5.9-29.8,9.1-55.1,11-73.9c4.9-49.9,6.9-115.3-0.6-142.3c-4.1-14.7-6.7-29.3-8.2-43.7c-0.1-1.3-0.3-2.5-0.4-3.8
	c-0.3-3.2-0.5-6.3-0.7-9.5c0-0.6-0.1-1.3-0.1-1.9c0-0.6-0.1-1.3-0.1-1.9c0-0.6-0.1-1.3-0.1-1.9c-0.1-2.5-0.2-5-0.2-7.5
	c0-2.4,0-4.7,0-7.1c0-1.1,0-2.2,0.1-3.3c0-0.6,0-1.1,0-1.7c0-1.1,0.1-2.2,0.1-3.3c0.2-5.5,0.6-11,1.1-16.3c0.1-0.7,0.1-1.5,0.2-2.2
	c0-0.3,0.1-0.6,0.1-0.9c0-0.2,0-0.3,0-0.5c0-0.5,0.1-1,0.1-1.4c0.6-5.5,1.3-10.9,2.1-16.2c0.1-0.4,0.1-0.9,0.2-1.3
	c0.1-0.3,0.1-0.7,0.2-1c0.1-0.5,0.2-1,0.3-1.5c0.1-0.3,0.1-0.7,0.2-1s0.1-0.7,0.2-1c0.1-0.5,0.2-1,0.3-1.5c0.1-0.7,0.2-1.3,0.4-1.9
	c0.1-0.5,0.2-1,0.3-1.4c1-5.3,2.1-10.4,3.3-15.5c0.1-0.5,0.3-1.1,0.4-1.6c0.4-1.7,0.8-3.3,1.2-4.9c0.1-0.5,0.3-1.1,0.4-1.6
	c0.2-0.6,0.3-1.2,0.5-1.8c0.1-0.5,0.2-0.9,0.4-1.4c0.2-0.7,0.4-1.4,0.6-2.1c0.2-0.7,0.4-1.4,0.6-2.1c0.2-0.7,0.4-1.4,0.6-2.1
	c0.5-1.6,0.9-3.2,1.4-4.7c17.2-57.2,43.1-95.1,43.1-95.1c1.2-0.2,38-6.3,67.5-26.6c0.2-0.1,0.3-0.2,0.5-0.3
	c3.9-2.7,7.7-5.7,11.2-8.9c0,0,0,0,0,0.1v0.1c0,0.1,0,0.4-0.1,0.7c0,0.1,0,0.1,0,0.2c-0.1,0.7-0.2,1.9-0.2,3.3c0,0.1,0,0.3,0,0.4
	c0,0.4,0,0.8-0.1,1.3c0,0.3,0,0.5,0,0.8v0.1c0,0.2,0,0.3,0,0.5c-0.3,12.5,1.6,37.7,18.4,54.5c0.4,0.4,0.8,0.7,1.2,1.1
	c0.6,0.5,1.2,1.1,1.8,1.6c0.4,0.3,0.8,0.7,1.3,1c0.6,0.5,1.3,1,2,1.5c0.5,0.3,0.9,0.6,1.4,1c2.7,1.8,5.6,3.4,8.8,4.7
	c0.4,0.2,0.8,0.3,1.2,0.5c5.3,2.1,11.4,3.7,18.4,4.4c65.4,7,72.1-77.8,72.1-77.8c2,5.7,5.4,11,9.8,16c0.5,0.5,0.9,1,1.4,1.5
	C805.9,404,860.8,422.9,887,458.1z"/>
<path class="st8" d="M885,795l-48.7,25.6L816,831.2c0.1,2.4,0.2,4.7,0.4,7.1c0,0.7,0.1,1.4,0.1,2.1l1.2,15.6c1.4,5,2.9,10,4.3,15
	c0,0-0.3,5-0.3,5c-50.9,2-101.8,4-152.7,6c0,0-50.2,1.2-50.2,1.2c0.1-0.3,2.2-14.4,8.1-26.4c5.7-11.7,13.5-20.9,22.6-26.2
	c1.8-1.1,3.7-2,5.6-2.7c7.3-2.8,14.9-8.9,22.5-17.5c0.4-0.4,0.7-0.8,1.1-1.2c1.5-1.7,2.2-4.9,4.5-5.5
	c107.7-29.1,85.9-300.6,156.6-324.4l0.8-0.1l39.9-5.1l16.3-2.1h0.2c1.4,3.3,2.9,7.3,4.3,11.9C915.4,529,926,633.7,885,795z"/>
<path class="st9" d="M769.2,271.8c-4.6,26.1-5.2,47.8-3.6,65.5c-17.1,20.9-55,60.3-124.9,40l10.1-75.8
	C650.8,301.5,774.2,243.2,769.2,271.8z"/>
<g>
	<path class="st0" d="M772.2,361.6c6.2,6.1,8.5,15.2,6.1,23.6c-1.6,5.6-3.5,11-5.7,15.9c-5,11.2-11.4,20.6-19.2,28.1
		c-13.4,12.7-30.2,19.4-49.1,19.4c-2.6,0-5.2-0.1-7.9-0.4c-22.9-2.2-38.5-9.5-48.9-23c-9.5-12.3-14.7-29.5-16-53.5
		c-0.3-6.5,4.6-12.2,11.1-12.5c0.2,0,0.3,0,0.5,0c0,0-9.4,71,54,77.8c65.4,7,72.1-77.8,72.1-77.8C769.9,359.6,771,360.4,772.2,361.6
		z"/>
</g>
<path class="st4" d="M645,799.8c0,0-32.6-16.7-50.1-15.4s-37.8,4.1-42.2,5.7s-54.7,49.3-49.9,56.5c4.9,7.2,11,1.3,11,1.3
	s-22.1,28.2,17,13.8c0,0,12.3,11.9,33.5-16.3c0,0,10.8-3.6,16.8-11c0,0,11,3,22.9-1.1l0.3,0.3c7.9,8.4,18.8,13.2,30.3,13.9
	c5.9,0.3,12,2.3,15.2,8l176.3-5.8L787.8,776L645,799.8z"/>
<path class="st5" d="M767.6,779.3c16.7-1.1,36.3,19.4,39.9,39.4c2.3,12.8-2.2,25.4-18.4,31.7c-0.4,0.2-0.8,0.3-1.2,0.5
	c-2.2,0.1,9.5,9.9,33.2,4.5c3.4-0.8,7-1.9,10.9-3.3c13.1-5,59.5,3.3,74.4-66.5c6-28.3,10.3-54.8,13-79.5c2.6-23.4,3.8-45.1,4.1-65.3
	c1.2-87-16.2-143.8-26.2-168.4c-3.8-9.4-10.2-14.3-10.2-14.3c-20.6-0.4-35.9,7.9-47.1,21.9c-45.5,56.5-24.9,205.5-28.9,245.3
	c-0.9,9.5-1.7,14.5-6.9,21.2c-4.2,5.4-10.1,9-16.7,10.7C769.2,761.7,767.6,779.3,767.6,779.3z"/>
<g>
	<path class="st8" d="M787.9,850.9c0.4-0.1,0.8-0.3,1.2-0.5c6-2.4,10.4-5.6,13.4-9.3c3.9,0,8.2-0.5,13.1-1.6c3.4-0.8,7-1.9,10.9-3.3
		c13.1-5,59.5,3.3,74.4-66.5c6-28.3,10.3-54.8,13-79.5c2.6-23.4,3.8-45.1,4.1-65.3c0.9-68.2-9.6-117.9-19-148
		c10.1,26.6,25.5,81.8,24.5,163.9c-0.3,20.1-1.5,41.9-4.1,65.3c-2.7,24.7-7,51.2-13,79.5C891.5,855.4,845,847.1,832,852
		c-3.9,1.5-7.5,2.6-10.9,3.3C797.3,860.8,785.6,851,787.9,850.9z"/>
	<path class="st8" d="M802,802.8c0.1,0.4,0.1,0.9,0.2,1.3c-7.8-14.2-22-25.7-34.6-24.8c0,0,0.7-7.2,5.9-13.6
		C786.8,771.5,799.2,787.3,802,802.8z"/>
</g>
<g>
	<path class="st6" d="M789.1,850.4c10.7,7.1,29,0.2,18.4-31.7C809.7,831.5,805.3,844,789.1,850.4z"/>
</g>
<g>
	<g>
		<path class="st6" d="M804.6,229.1c0.2-0.6,0.6-1.3,0.9-2.2c5.2-11.7,21-47.4,6.7-74c-8-14.8-24-24.4-47.7-28.4l-0.5,2.7
			c22.8,3.9,38.2,12.9,45.7,27c13.7,25.5-1.7,60.2-6.8,71.6c-0.4,0.9-0.7,1.6-1,2.2L804.6,229.1z"/>
	</g>
	<g>
		<path class="st6" d="M605.4,168.4c-1.3,2.3-2.5,4.7-3.4,7.2c-1,2.5-1.7,5.1-2.2,7.8c-0.2,1.3-0.4,2.7-0.4,4.1
			c-0.1,1.4,0,2.7,0.2,4.1c0.3,2.7,1.1,5.4,2.2,7.8c1.1,2.4,2.7,4.7,4.4,6.6c1.8,2,3.8,3.7,5.9,5.2c2.1,1.5,4.4,2.8,6.7,3.9
			c2.3,1.1,4.7,2.1,7.1,2.8c-2.4-0.9-4.6-2.1-6.8-3.4c-2.2-1.3-4.2-2.8-6.1-4.4c-1.9-1.6-3.6-3.4-5.1-5.4s-2.7-4.1-3.5-6.4
			c-0.8-2.3-1.3-4.6-1.3-7c0-1.2,0-2.4,0.2-3.5c0.2-1.2,0.4-2.3,0.7-3.5c0.6-2.3,1.5-4.5,2.6-6.7s2.3-4.2,3.7-6.3
			c0.9-1.3,0.5-3-0.7-3.9c-1.3-0.9-3-0.5-3.9,0.7C605.5,168.3,605.4,168.4,605.4,168.4L605.4,168.4z"/>
	</g>
	<g>
		<path class="st6" d="M679.5,97.7c-2.9-2.2-6.2-3.9-9.5-5c-3.4-1.1-6.9-1.6-10.3-1.7c-3.5-0.1-6.9,0.3-10.2,1.1
			c-3.3,0.8-6.5,2-9.4,3.7c3.1-1.3,6.3-2,9.6-2.4c3.3-0.3,6.5-0.2,9.7,0.3s6.2,1.4,9,2.8s5.3,3.2,7.5,5.3c1.1,1.1,2.8,1.1,3.9,0
			c1.1-1.1,1.1-2.8,0-3.9C679.7,97.9,679.6,97.8,679.5,97.7L679.5,97.7z"/>
	</g>
	<path class="st6" d="M605.3,173.7c-6.3,27,9.4,35.8,9.4,35.8l4.5-23C619.2,186.5,606.2,170,605.3,173.7z"/>
	<g>
		<path class="st6" d="M778.8,132.5c-0.2-9.8-2.8-18.3-7.8-25.3c-4.5-6.4-10.8-11.5-18.8-15c-12-5.4-27.2-7.1-42.7-4.8
			c-15.3,2.2-29.1,8-38.8,16.3l1.8,2.1c9.2-7.8,22.8-13.5,37.4-15.7c15-2.2,29.6-0.6,41.2,4.6c11.1,5,24.4,15.6,24.9,37.9
			L778.8,132.5z"/>
	</g>
	<path class="st6" d="M613.1,158.1l6,28.4l132.7,100.3l28,4.8l0,0c82.4-124.7-2.4-162.5-2.4-162.5c-14.6-37.2-48.4-42.5-82-36.1
		c-6.9,1.3-13.7,3.1-20.4,5.3l0,0c-30.4,9.7-57.3,26.2-65.2,33.3C591.7,147.9,613.1,158.1,613.1,158.1z"/>
	<path class="st7" d="M632.7,338.2c0,0-1.1,32,17.8,30c16.7-1.8,34.4-4.5,50.3-10.2c24-8.7,43.7-24.1,49.2-53.3
		c2.3-12.3,3.1-27.1,2.5-42.3c-1.5-44.7-14.1-93.4-29.7-95.9c-21-3.3-58.9-4.2-68.1-3.5c-9.2,0.7-21-6.1-26.2-1.3
		c-5.2,4.9-10.8,28.5-13,42.7s-5.5,14.3-6.3,20.7s4.7,13.7,7.3,21.2c2.5,7.6-3,12.2-4.5,34.4C610.6,302.9,632.7,338.2,632.7,338.2z"
		/>
	<path class="st6" d="M630,226l-4.8-0.9l-4.8-0.9c-1.6-0.3-3.2-0.5-4.9-0.8c-0.8-0.1-1.7-0.2-2.5-0.3c-0.9-0.1-1.8-0.2-2.9-0.2
		c-2.1,0-3.9,1.7-3.9,3.8c0,1.8,1.2,3.3,2.8,3.8l0.6,0.2c0.5,0.1,1.1,0.3,1.8,0.5s1.4,0.5,2.1,0.7c1.4,0.5,2.9,1.1,4.4,1.6l4.4,1.8
		l4.3,1.8h0.1c3,1.3,6.4-0.2,7.7-3.2s-0.2-6.4-3.2-7.7C630.7,226.2,630.3,226.1,630,226z"/>
	
		<ellipse transform="matrix(9.363015e-02 -0.9956 0.9956 9.363015e-02 437.3975 1003.207)" class="st7" cx="769.7" cy="261.4" rx="34.1" ry="25.2"/>
	<path class="st10" d="M768.5,312.9C768.4,312.9,768.4,312.9,768.5,312.9L768.5,312.9C768.4,312.9,768.4,312.9,768.5,312.9z"/>
	<path class="st6" d="M659.6,238.1c6.7-2.6,13.5-5.1,20.2-6.5c3.4-0.7,6.7-1.1,10-0.9c3.3,0.2,6.4,1.1,9.4,2.6h0.1
		c1.4,0.7,3,0.1,3.7-1.2c0.6-1.2,0.2-2.7-0.9-3.5c-3.3-2.3-7.2-4-11.3-4.8c-4-0.8-8.1-0.9-12-0.6c-7.9,0.5-15.3,2.2-22.6,4
		c-3.1,0.7-5,3.9-4.3,7s3.9,5,7,4.3C659,238.3,659.3,238.2,659.6,238.1L659.6,238.1z"/>
	<path class="st10" d="M664.9,332.8c0,0-12.5,4.5-22.5,3.9c-1.8-0.1-2.5,2.3-0.9,3.1C646.1,342.2,657,340,664.9,332.8z"/>
	<path class="st10" d="M646,290.5c-2.6,4.8-16.4,5.6-20.4-0.6L646,290.5z"/>
	<g>
		<path class="st10" d="M632,316.8c0.2,0.7,0.6,1.6,1,2.5c0.3,0.6,0.6,1.3,1.1,1.9c0.8,1.2,1.7,2.4,2.9,3.4c0.6,0.5,1.2,1,1.9,1.3
			c4,2.3,10,2.7,19-2c1.1-0.6,2.2-1.2,3.3-1.9c3.5-2.2,7.5-5.1,11.9-8.9l0,0c0.5-0.4,0.2-1.2-0.5-1.2h-0.5l-38.7,2.7
			c-0.1,0-0.2,0-0.2,0C632.3,315,631.7,315.9,632,316.8z"/>
		<path class="st11" d="M633.4,314.8c0.1,0.4,0.3,1.2,0.6,2.2c0.4,1.3,1.6,2.1,3,2.1c9.7,0,35.2-3.6,35.1-7L633.4,314.8z"/>
		<path class="st11" d="M638.9,326c4,2.3,10,2.7,19-2L638.9,326z"/>
	</g>
	<path class="st6" d="M594.2,151.3c5.4-23.5,28.3-28.7,28.3-28.7c8.3-40.5,52.5-24.3,52.5-24.3l51.8,45
		c-0.1,37.4-88.8,65.9-120.6,35.6l0,0C598.7,173.1,591.3,163.9,594.2,151.3z"/>
	<g>
		<path class="st6" d="M719,153.9c0.2,1.1,0.3,2.2,0.4,3.4c0,1.1,0,2.3-0.2,3.4c-0.3,2.2-1.1,4.5-2.2,6.6c-1.1,2.1-2.6,4.1-4.3,6
			c-0.8,0.9-1.8,1.8-2.7,2.7c-1,0.9-1.9,1.7-3,2.5c-4.1,3.2-8.7,5.8-13.5,8.1c-2.4,1.1-4.9,2.2-7.4,3.2s-5.1,1.8-7.6,2.6l0,0
			c-0.3,0.1-0.5,0.4-0.4,0.7s0.4,0.5,0.7,0.4c2.7-0.5,5.4-1.1,8-1.8s5.3-1.5,7.9-2.4c5.2-1.8,10.3-4,15.1-7c1.2-0.7,2.4-1.5,3.5-2.4
			c1.2-0.8,2.3-1.7,3.4-2.7c2.2-1.9,4.2-4.1,5.9-6.6s3.1-5.3,3.9-8.4c0.4-1.5,0.7-3.1,0.8-4.7c0.1-1.6,0.1-3.2,0-4.7
			c-0.2-2.3-2.2-4-4.4-3.9c-2.3,0.2-4,2.2-3.9,4.4C719,153.6,719,153.8,719,153.9L719,153.9z"/>
	</g>
</g>
<path class="st8" d="M519.2,700.2c0.5-1.3,1.1-2.6,1.6-3.9c-0.9-12.9-2.7-24.5-5.4-34.4c-4.1-14.7-6.7-29.3-8.2-43.7
	c-0.1-1.3-0.3-2.5-0.4-3.8c-0.3-3.2-0.5-6.3-0.7-9.5c0-0.6-0.1-1.3-0.1-1.9c0-0.6-0.1-1.3-0.1-1.9c0-0.6-0.1-1.3-0.1-1.9
	c-0.1-2.5-0.2-5-0.2-7.5c0-2.4,0-4.7,0-7.1c0-1.1,0-2.2,0.1-3.3c0-0.6,0-1.1,0-1.7c0-1.1,0.1-2.2,0.1-3.3c0.2-5.5,0.6-11,1.1-16.3
	c0.1-0.7,0.1-1.5,0.2-2.2l0,0c0-0.3,0.1-0.6,0.1-0.9c0-0.2,0-0.3,0-0.5c0-0.5,0.1-1,0.1-1.4c0.6-5.5,1.3-10.9,2.1-16.2
	c0.1-0.4,0.1-0.9,0.2-1.3c0.1-0.3,0.1-0.7,0.2-1c0.1-0.5,0.2-1,0.3-1.5c0.1-0.3,0.1-0.7,0.2-1s0.1-0.7,0.2-1c0.1-0.5,0.2-1,0.3-1.5
	c0.1-0.7,0.2-1.3,0.4-1.9c0.1-0.5,0.2-1,0.3-1.4c1-5.3,2.1-10.4,3.3-15.5c0.1-0.5,0.3-1.1,0.4-1.6c0.4-1.7,0.8-3.3,1.2-4.9
	c0.1-0.5,0.3-1.1,0.4-1.6c0.2-0.6,0.3-1.2,0.5-1.8c0.1-0.5,0.2-0.9,0.4-1.4c0.2-0.7,0.4-1.4,0.6-2.1c0.2-0.7,0.4-1.4,0.6-2.1
	c0.2-0.7,0.4-1.4,0.6-2.1l0,0l0,0c-34.3,55.4-43.6,191-45.9,240.8c5.2-2.5,10.7-5.6,16.5-9.2C503.1,722.9,513.9,713.1,519.2,700.2z"
	/>
<path class="st12" d="M724.4,866.8H434c-3.3,0-6-2.7-6-6v-2.1c0-3.3,2.7-6,6-6h290.4c3.3,0,6,2.7,6,6v2.1
	C730.4,864.1,727.7,866.8,724.4,866.8z"/>
<path class="st13" d="M113.1,619.1h355.3c8.3,0,18.3,6,22.5,13.5l109.5,234.1H214.9L103.2,632.6
	C100.4,625.1,104.8,619.1,113.1,619.1z"/>
<path class="st14" d="M115.5,625.2h356.3c7.3,0,15.9,4.6,20.7,10.7l-1.5-3.3c-4.2-7.5-14.2-13.5-22.5-13.5H113.1
	c-8.3,0-12.7,6-9.9,13.5l1.5,3.2C103.9,629.8,108.2,625.2,115.5,625.2z"/>
<path class="st14" d="M318.3,750.8c-5-11,3-19.9,18-19.9c14.9,0,31.3,8.9,36.6,19.9c5.3,11.1-2.6,20.3-17.8,20.3
	C339.9,771,323.4,761.9,318.3,750.8z"/>
<g>
	<path class="st6" d="M1018.1,886.4h-950c-6.5,0-11.7-5.2-11.7-11.7v-4.1c0-6.5,5.2-11.7,11.7-11.7h950c6.5,0,11.7,5.2,11.7,11.7
		v4.1C1029.8,881.2,1024.6,886.4,1018.1,886.4z"/>
</g>
<g id="_x32_">
	<g>
		<polygon class="st15" points="434.6,104.2 410.2,96.8 456,65 		"/>
		<polygon class="st15" points="383,91.7 401.3,91.7 456,65 		"/>
		<polygon class="st16" points="410.2,108.8 410.2,96.8 419.8,99.7 		"/>
		<polygon class="st17" points="401.3,91.7 410.2,108.8 410.2,96.8 456,65 		"/>
	</g>
	<g>
		<polygon class="st11" points="207.7,296.6 224.9,297.8 153.1,328 		"/>
		<polygon class="st11" points="233.5,302.2 255.2,310.9 153.1,328 		"/>
		<polygon class="st17" points="224.9,297.8 228.1,303.9 153.1,328 		"/>
		<polygon class="st16" points="231.6,314.8 230.3,323.2 153.1,328 		"/>
	</g>
	<g>
		<polygon class="st15" points="947.2,236.7 967.1,266 983.3,256.2 		"/>
		<polygon class="st15" points="1002.6,249.9 989.8,251.4 947.2,236.7 		"/>
		<polygon class="st17" points="990.8,267.4 989.8,251.4 947.2,236.7 983.3,256.2 		"/>
		<polygon class="st16" points="979.6,258.4 990.8,267.4 983.3,256.2 		"/>
	</g>
</g>
<path class="st18" d="M982,771.7L971.9,859h-57.6l-10.1-87.2c-0.4-3.1,2-5.7,5.1-5.7h67.5C980,766,982.4,768.7,982,771.7z"/>
<path class="st18" d="M1004.2,815.2c-3.1,10.6-13,19-22,21.7c-2.7,0.8-5.2,1.1-7.5,0.8c-0.1,0-0.1,0-0.2,0l0.8-7.1
	c0.1,0,0.2,0,0.2,0c2.2,0.3,4.8-0.3,7.4-1.4c6.1-2.7,12.5-8.5,14.6-14.8c3.1-9.3-2.3-18.1-8.3-19.8c-0.4-0.1-0.8-0.2-1.2-0.3
	c-3.2-0.4-6.5,1.4-9.1,4.7l1.1-9.9c2.8-1.5,5.8-2.2,8.8-1.8c0.8,0.1,1.5,0.2,2.3,0.5C1000.3,790.2,1008.1,801.4,1004.2,815.2z"/>
<path class="st18" d="M982.9,829.2c-0.3,2.5-0.5,5.1-0.7,7.7c-2.7,0.8-5.2,1.1-7.5,0.8c-0.1,0-0.1,0-0.2,0l0.8-7.1
	c0.1,0,0.2,0,0.2,0C977.6,830.9,980.2,830.4,982.9,829.2z"/>
<path class="st18" d="M973.1,787.7c-0.6,2.1-1.2,4.4-1.9,6.9c-0.4-0.1-0.8-0.2-1.2-0.3c-3.2-0.4-6.5,1.4-9.1,4.7l1.1-9.9
	c2.8-1.5,5.8-2.2,8.8-1.8C971.6,787.3,972.3,787.5,973.1,787.7z"/>
<path class="st18" d="M971.2,859h-56.9l-10.1-87.2c-0.4-3.1,2-5.7,5.1-5.7h6.7C923.8,792.6,939.4,827.8,971.2,859z"/>
<path class="st11" d="M945.4,751c-1.7-0.7-3.3-1.5-4.8-2.5s-3-2.1-4.4-3.3c-2.8-2.5-5.2-5.5-7-9c-0.4-0.9-0.8-1.8-1.2-2.8
	c-0.3-1-0.6-2-0.8-3c-0.4-2-0.6-4.2-0.4-6.3c0.2-2.4,1-4.6,1.9-6.4c0.9-1.9,2-3.6,3.2-5.1c2.3-3,4.8-5.6,7.1-8.1
	c1.2-1.2,2.3-2.5,3.4-3.7c0.5-0.6,1-1.2,1.5-1.8l0.7-0.9c0.2-0.3,0.4-0.6,0.7-0.9c1.7-2.5,2.8-5.1,2.8-8.1c0-1.5-0.2-3.1-0.7-4.7
	c-0.2-0.8-0.5-1.6-0.8-2.4c-0.3-0.8-0.7-1.6-1.1-2.5c0.4,0.3,0.7,0.5,1.1,0.8c0.4,0.3,0.7,0.5,1.1,0.9c0.7,0.6,1.4,1.3,1.9,2
	c0.3,0.4,0.6,0.7,0.9,1.1l0.8,1.2c0.3,0.4,0.4,0.9,0.7,1.3c0.1,0.2,0.2,0.5,0.3,0.7l0.2,0.7c0.6,1.9,0.9,4.1,0.7,6.2
	c-0.1,1-0.3,2.1-0.6,3.1l-0.2,0.7L952,699c-0.2,0.5-0.3,1-0.5,1.4c-0.2,0.5-0.4,0.9-0.6,1.4l-0.7,1.3c-0.5,0.8-1,1.7-1.5,2.5
	c-1,1.6-2.1,3.1-3.2,4.5c-2.2,2.8-4.5,5.4-6.4,7.9s-3.4,5-3.8,7.2c-0.2,1.3-0.3,2.7-0.2,4.1c0,0.7,0.1,1.4,0.3,2.1
	c0.1,0.7,0.3,1.5,0.5,2.2c0.8,2.9,2.2,5.9,3.8,8.8C941.3,745.3,943.3,748.1,945.4,751z"/>
<path class="st11" d="M946.2,742c-1.1-1.2-2-2.5-2.8-3.9s-1.6-2.9-2.1-4.5s-0.9-3.4-0.6-5.4c0.1-0.5,0.2-1,0.4-1.5
	c0.1-0.2,0.2-0.5,0.3-0.7s0.3-0.5,0.4-0.7c0.5-0.8,1-1.5,1.5-2.1c2.1-2.6,4.2-4.9,6.2-7.3c1-1.2,2-2.4,3-3.6c1-1.2,1.9-2.4,2.8-3.6
	c0.9-1.2,1.8-2.5,2.6-3.7c0.8-1.3,1.6-2.5,2.3-3.8c1.4-2.6,2.6-5.2,3.4-7.8c0.4-1.3,0.6-2.6,0.8-3.9c0.1-1.3,0.2-2.6,0.1-3.9
	c-0.2-2.6-0.8-5.3-1.8-8s-2.2-5.4-3.6-8.2c-1.3-2.8-2.8-5.7-4.2-8.7c-1.3-3-2.6-6.2-3.5-9.5c-0.2-0.8-0.4-1.7-0.6-2.5
	c-0.2-0.8-0.3-1.7-0.5-2.6c-0.2-1.7-0.4-3.5-0.4-5.2s0.1-3.5,0.3-5.2c0.1-0.8,0.3-1.7,0.4-2.5c0.2-0.8,0.3-1.7,0.5-2.5l0.7-2.4
	c0.1-0.4,0.3-0.8,0.4-1.2l0.4-1.2l0.4-1.2c0.1-0.4,0.4-0.8,0.5-1.2l0.5-1.1c0.2-0.4,0.3-0.8,0.6-1.1c1.6-3,3.6-5.7,6-8
	c0.3-0.3,0.6-0.6,0.9-0.8c0.3-0.3,0.6-0.6,0.9-0.8c0.7-0.5,1.3-1,2-1.5c1.4-0.9,2.8-1.7,4.3-2.2c-5,4-8.2,9.5-10.1,15.1
	c-0.2,0.7-0.4,1.4-0.6,2.2c-0.1,0.4-0.2,0.7-0.3,1.1l-0.2,1.1l-0.2,1.1c-0.1,0.4-0.2,0.7-0.2,1.1l-0.3,2.2c-0.1,0.7-0.1,1.5-0.2,2.2
	c0,0.7-0.1,1.5-0.1,2.2c0,1.4,0.1,2.9,0.2,4.3c0.3,2.8,1,5.6,2,8.4c1,2.7,2.2,5.4,3.6,8.2c1.4,2.7,2.9,5.5,4.4,8.3
	c0.7,1.4,1.5,2.9,2.2,4.4s1.4,3.1,2,4.7c1.2,3.3,2.1,6.8,2.2,10.5c0.1,1.9,0,3.7-0.3,5.6c-0.3,1.8-0.7,3.6-1.3,5.3
	c-1.2,3.4-2.8,6.5-4.7,9.4s-4,5.4-6.2,7.9c-2.2,2.4-4.6,4.7-7,6.8c-1.2,1.1-2.4,2.1-3.6,3.1c-1.2,1-2.4,2-3.6,3
	c-0.6,0.5-1.1,1-1.6,1.5c-0.1,0.1-0.2,0.2-0.3,0.3s-0.2,0.2-0.2,0.3c-0.1,0.2-0.3,0.5-0.4,0.7c-0.4,1.1-0.5,2.6-0.4,4
	c0.1,1.5,0.5,3,0.9,4.5C945,739,945.6,740.5,946.2,742z"/>
</svg>
