<?xml version="1.0" encoding="utf-8"?>
<!-- Generator: Adobe Illustrator 24.2.3, SVG Export Plug-In . SVG Version: 6.00 Build 0)  -->
<svg version="1.1" id="javascript" xmlns="http://www.w3.org/2000/svg" xmlns:xlink="http://www.w3.org/1999/xlink" x="0px" y="0px"
	 viewBox="0 0 1461.4 1629.7" style="enable-background:new 0 0 1461.4 1629.7;" xml:space="preserve">
<style type="text/css">
	.st0{fill:#E6A329;}
	.st1{fill:#F1BF22;}
	.st2{fill:#FFFFFF;}
	.st3{fill:#EBEBEB;}
</style>
<g>
	<path class="st0" d="M1352.1,111.5H109.3l116.5,1263.4l504.8,143.2l504.8-143.2L1352.1,111.5z"/>
	<path class="st1" d="M730.7,214.4V1411l409-115.9l99.5-1080.7L730.7,214.4z"/>
	<path class="st2" d="M1056.1,369.4H427.2l-43.8,473l0.9-2.9h534.3l-17.4,200.1l-170.5,49l-173-49.8l-10.4-121.1h-157l22.4,242
		l318,90.3l318.1-90.3l43.8-475.1h-567l7.3-158.3h393.4l5.9,90.7h158.4L1056.1,369.4z"/>
	<path class="st3" d="M730.8,369.4H427.2l-43.8,473l0.9-2.9h346.5V685.2H547.7l7.3-158.3h175.8V369.4z M547.7,917.8H390.3
		l22.4,241.9l318,90.2v-161l-173-50L547.7,917.8z"/>
</g>
</svg>
